<svg width="257" height="280" viewBox="0 0 257 280" fill="none" xmlns="http://www.w3.org/2000/svg">
<rect width="257" height="280" rx="32" fill="#5AC4FF"/>
<path d="M33.548 54V41.652H35.258V52.506H41.396V54H33.548ZM46.6004 54.216C45.6404 54.216 44.8304 54.042 44.1704 53.694C43.5224 53.334 43.0244 52.788 42.6764 52.056C42.3404 51.324 42.1724 50.394 42.1724 49.266C42.1724 48.126 42.3404 47.196 42.6764 46.476C43.0244 45.744 43.5224 45.204 44.1704 44.856C44.8304 44.496 45.6404 44.316 46.6004 44.316C47.5604 44.316 48.3644 44.496 49.0124 44.856C49.6724 45.204 50.1704 45.744 50.5064 46.476C50.8424 47.196 51.0104 48.126 51.0104 49.266C51.0104 50.394 50.8424 51.324 50.5064 52.056C50.1704 52.788 49.6724 53.334 49.0124 53.694C48.3644 54.042 47.5604 54.216 46.6004 54.216ZM46.6004 52.884C47.2124 52.884 47.7224 52.764 48.1304 52.524C48.5384 52.284 48.8444 51.912 49.0484 51.408C49.2644 50.892 49.3724 50.244 49.3724 49.464V49.068C49.3724 48.276 49.2644 47.628 49.0484 47.124C48.8444 46.62 48.5384 46.248 48.1304 46.008C47.7224 45.768 47.2124 45.648 46.6004 45.648C45.9884 45.648 45.4724 45.768 45.0524 46.008C44.6444 46.248 44.3384 46.62 44.1344 47.124C43.9304 47.628 43.8284 48.276 43.8284 49.068V49.464C43.8284 50.244 43.9304 50.892 44.1344 51.408C44.3384 51.912 44.6444 52.284 45.0524 52.524C45.4724 52.764 45.9884 52.884 46.6004 52.884ZM56.686 54.216C55.726 54.216 54.916 54.042 54.256 53.694C53.608 53.334 53.11 52.788 52.762 52.056C52.426 51.324 52.258 50.394 52.258 49.266C52.258 48.126 52.426 47.196 52.762 46.476C53.11 45.744 53.608 45.204 54.256 44.856C54.916 44.496 55.726 44.316 56.686 44.316C57.646 44.316 58.45 44.496 59.098 44.856C59.758 45.204 60.256 45.744 60.592 46.476C60.928 47.196 61.096 48.126 61.096 49.266C61.096 50.394 60.928 51.324 60.592 52.056C60.256 52.788 59.758 53.334 59.098 53.694C58.45 54.042 57.646 54.216 56.686 54.216ZM56.686 52.884C57.298 52.884 57.808 52.764 58.216 52.524C58.624 52.284 58.93 51.912 59.134 51.408C59.35 50.892 59.458 50.244 59.458 49.464V49.068C59.458 48.276 59.35 47.628 59.134 47.124C58.93 46.62 58.624 46.248 58.216 46.008C57.808 45.768 57.298 45.648 56.686 45.648C56.074 45.648 55.558 45.768 55.138 46.008C54.73 46.248 54.424 46.62 54.22 47.124C54.016 47.628 53.914 48.276 53.914 49.068V49.464C53.914 50.244 54.016 50.892 54.22 51.408C54.424 51.912 54.73 52.284 55.138 52.524C55.558 52.764 56.074 52.884 56.686 52.884ZM62.8836 54V40.986H64.4676V49.122L68.4816 44.532H70.3536L67.1136 48.204L70.5336 54H68.7156L66.0876 49.374L64.4676 51.012V54H62.8836ZM71.9497 42.75V40.986H73.5337V42.75H71.9497ZM71.9497 54V44.532H73.5337V54H71.9497ZM75.8127 54V44.532H77.0907L77.2347 45.954H77.3607C77.6127 45.57 77.8947 45.258 78.2067 45.018C78.5307 44.778 78.8847 44.604 79.2687 44.496C79.6647 44.376 80.0847 44.316 80.5287 44.316C81.1287 44.316 81.6507 44.418 82.0947 44.622C82.5507 44.826 82.9047 45.156 83.1567 45.612C83.4207 46.068 83.5527 46.686 83.5527 47.466V54H81.9687V47.682C81.9687 47.286 81.9147 46.962 81.8067 46.71C81.7107 46.458 81.5727 46.26 81.3927 46.116C81.2247 45.972 81.0147 45.87 80.7627 45.81C80.5227 45.75 80.2527 45.72 79.9527 45.72C79.5087 45.72 79.0887 45.828 78.6927 46.044C78.2967 46.26 77.9787 46.572 77.7387 46.98C77.5107 47.388 77.3967 47.874 77.3967 48.438V54H75.8127ZM87.3773 57.276C86.9213 57.276 86.5013 57.18 86.1173 56.988C85.7333 56.808 85.4273 56.544 85.1993 56.196C84.9713 55.848 84.8573 55.434 84.8573 54.954C84.8573 54.426 85.0013 53.988 85.2893 53.64C85.5893 53.292 85.9433 53.034 86.3513 52.866C86.0513 52.722 85.8173 52.524 85.6493 52.272C85.4813 52.008 85.3973 51.72 85.3973 51.408C85.3973 50.988 85.5473 50.634 85.8473 50.346C86.1593 50.058 86.5373 49.866 86.9813 49.77C86.5733 49.506 86.2493 49.17 86.0093 48.762C85.7813 48.342 85.6673 47.88 85.6673 47.376C85.6673 46.776 85.8053 46.248 86.0813 45.792C86.3693 45.336 86.8013 44.976 87.3773 44.712C87.9653 44.448 88.6793 44.316 89.5193 44.316C89.9033 44.316 90.2633 44.346 90.5993 44.406C90.9353 44.454 91.2353 44.538 91.4993 44.658C91.9193 44.466 92.2313 44.22 92.4353 43.92C92.6513 43.62 92.7833 43.314 92.8313 43.002H94.3973C94.3973 43.362 94.3133 43.704 94.1453 44.028C93.9893 44.34 93.7733 44.604 93.4973 44.82C93.2213 45.024 92.8853 45.162 92.4893 45.234C92.7893 45.522 93.0113 45.846 93.1553 46.206C93.3113 46.566 93.3893 46.956 93.3893 47.376C93.3893 47.976 93.2453 48.51 92.9573 48.978C92.6813 49.434 92.2613 49.794 91.6973 50.058C91.1333 50.322 90.4253 50.454 89.5733 50.454H88.0973C87.7733 50.454 87.5093 50.52 87.3053 50.652C87.1013 50.772 86.9993 50.97 86.9993 51.246C86.9993 51.486 87.1013 51.684 87.3053 51.84C87.5093 51.984 87.7733 52.056 88.0973 52.056H91.9493C92.6453 52.056 93.2153 52.29 93.6593 52.758C94.1033 53.214 94.3253 53.802 94.3253 54.522C94.3253 55.038 94.1933 55.5 93.9293 55.908C93.6773 56.328 93.3173 56.658 92.8493 56.898C92.3933 57.15 91.8593 57.276 91.2473 57.276H87.3773ZM87.8273 56.07H91.2293C91.5053 56.07 91.7573 56.01 91.9853 55.89C92.2133 55.782 92.3933 55.626 92.5253 55.422C92.6573 55.218 92.7233 54.996 92.7233 54.756C92.7233 54.348 92.6033 54.024 92.3633 53.784C92.1233 53.544 91.8233 53.424 91.4633 53.424H87.8273C87.4433 53.424 87.1193 53.556 86.8553 53.82C86.5913 54.072 86.4593 54.384 86.4593 54.756C86.4593 55.152 86.5913 55.47 86.8553 55.71C87.1193 55.95 87.4433 56.07 87.8273 56.07ZM89.5373 49.266C90.3053 49.266 90.8753 49.098 91.2473 48.762C91.6193 48.426 91.8053 47.964 91.8053 47.376C91.8053 46.8 91.6193 46.344 91.2473 46.008C90.8753 45.672 90.3053 45.504 89.5373 45.504C88.7693 45.504 88.1933 45.672 87.8093 46.008C87.4373 46.344 87.2513 46.8 87.2513 47.376C87.2513 47.748 87.3353 48.078 87.5033 48.366C87.6713 48.654 87.9233 48.876 88.2593 49.032C88.5953 49.188 89.0213 49.266 89.5373 49.266ZM99.557 54V45.864H98.153V44.532H99.557V43.02C99.557 42.648 99.611 42.3 99.719 41.976C99.827 41.64 100.031 41.37 100.331 41.166C100.631 40.95 101.051 40.842 101.591 40.842C101.759 40.842 101.921 40.854 102.077 40.878C102.245 40.89 102.401 40.914 102.545 40.95C102.701 40.974 102.839 41.004 102.959 41.04V42.174H102.005C101.705 42.174 101.483 42.252 101.339 42.408C101.207 42.552 101.141 42.762 101.141 43.038V44.532H102.959V45.864H101.141V54H99.557ZM107.844 54.216C106.884 54.216 106.074 54.042 105.414 53.694C104.766 53.334 104.268 52.788 103.92 52.056C103.584 51.324 103.416 50.394 103.416 49.266C103.416 48.126 103.584 47.196 103.92 46.476C104.268 45.744 104.766 45.204 105.414 44.856C106.074 44.496 106.884 44.316 107.844 44.316C108.804 44.316 109.608 44.496 110.256 44.856C110.916 45.204 111.414 45.744 111.75 46.476C112.086 47.196 112.254 48.126 112.254 49.266C112.254 50.394 112.086 51.324 111.75 52.056C111.414 52.788 110.916 53.334 110.256 53.694C109.608 54.042 108.804 54.216 107.844 54.216ZM107.844 52.884C108.456 52.884 108.966 52.764 109.374 52.524C109.782 52.284 110.088 51.912 110.292 51.408C110.508 50.892 110.616 50.244 110.616 49.464V49.068C110.616 48.276 110.508 47.628 110.292 47.124C110.088 46.62 109.782 46.248 109.374 46.008C108.966 45.768 108.456 45.648 107.844 45.648C107.232 45.648 106.716 45.768 106.296 46.008C105.888 46.248 105.582 46.62 105.378 47.124C105.174 47.628 105.072 48.276 105.072 49.068V49.464C105.072 50.244 105.174 50.892 105.378 51.408C105.582 51.912 105.888 52.284 106.296 52.524C106.716 52.764 107.232 52.884 107.844 52.884ZM114.042 54V44.532H115.32L115.464 46.098H115.59C115.686 45.798 115.818 45.516 115.986 45.252C116.154 44.976 116.382 44.754 116.67 44.586C116.958 44.406 117.312 44.316 117.732 44.316C117.912 44.316 118.074 44.334 118.218 44.37C118.374 44.394 118.488 44.424 118.56 44.46V45.918H117.966C117.558 45.918 117.204 45.99 116.904 46.134C116.616 46.266 116.376 46.458 116.184 46.71C115.992 46.962 115.848 47.262 115.752 47.61C115.668 47.958 115.626 48.33 115.626 48.726V54H114.042ZM126.29 54.216C125.51 54.216 124.838 54.042 124.274 53.694C123.722 53.346 123.29 52.806 122.978 52.074C122.678 51.33 122.528 50.37 122.528 49.194C122.528 48.078 122.684 47.16 122.996 46.44C123.308 45.72 123.74 45.186 124.292 44.838C124.844 44.49 125.486 44.316 126.218 44.316C126.638 44.316 127.028 44.364 127.388 44.46C127.748 44.556 128.066 44.706 128.342 44.91C128.63 45.114 128.882 45.384 129.098 45.72H129.206V40.986H130.79V54H129.512L129.368 52.65H129.242C128.918 53.178 128.498 53.574 127.982 53.838C127.466 54.09 126.902 54.216 126.29 54.216ZM126.668 52.83C127.268 52.83 127.754 52.698 128.126 52.434C128.498 52.17 128.768 51.786 128.936 51.282C129.116 50.778 129.206 50.154 129.206 49.41V49.122C129.206 48.474 129.14 47.928 129.008 47.484C128.876 47.04 128.696 46.686 128.468 46.422C128.24 46.158 127.976 45.972 127.676 45.864C127.376 45.756 127.058 45.702 126.722 45.702C126.134 45.702 125.654 45.822 125.282 46.062C124.91 46.29 124.634 46.656 124.454 47.16C124.274 47.652 124.184 48.294 124.184 49.086V49.464C124.184 50.28 124.28 50.94 124.472 51.444C124.664 51.936 124.94 52.29 125.3 52.506C125.672 52.722 126.128 52.83 126.668 52.83ZM136.881 54.216C135.945 54.216 135.153 54.042 134.505 53.694C133.869 53.334 133.383 52.788 133.047 52.056C132.723 51.324 132.561 50.394 132.561 49.266C132.561 48.126 132.723 47.196 133.047 46.476C133.383 45.744 133.875 45.204 134.523 44.856C135.171 44.496 135.981 44.316 136.953 44.316C137.841 44.316 138.585 44.49 139.185 44.838C139.785 45.174 140.235 45.684 140.535 46.368C140.847 47.04 141.003 47.886 141.003 48.906V49.662H134.199C134.223 50.418 134.331 51.042 134.523 51.534C134.727 52.014 135.027 52.368 135.423 52.596C135.819 52.812 136.317 52.92 136.917 52.92C137.325 52.92 137.679 52.872 137.979 52.776C138.291 52.668 138.549 52.518 138.753 52.326C138.969 52.134 139.131 51.906 139.239 51.642C139.347 51.378 139.407 51.09 139.419 50.778H140.967C140.955 51.282 140.859 51.75 140.679 52.182C140.499 52.602 140.235 52.962 139.887 53.262C139.539 53.562 139.113 53.796 138.609 53.964C138.105 54.132 137.529 54.216 136.881 54.216ZM134.235 48.474H139.365C139.365 47.946 139.305 47.502 139.185 47.142C139.065 46.782 138.891 46.488 138.663 46.26C138.447 46.032 138.189 45.87 137.889 45.774C137.601 45.666 137.271 45.612 136.899 45.612C136.347 45.612 135.879 45.714 135.495 45.918C135.111 46.122 134.817 46.434 134.613 46.854C134.409 47.274 134.283 47.814 134.235 48.474ZM146.095 54.216C145.447 54.216 144.877 54.15 144.385 54.018C143.893 53.886 143.485 53.694 143.161 53.442C142.837 53.19 142.591 52.89 142.423 52.542C142.255 52.194 142.171 51.798 142.171 51.354C142.171 51.294 142.171 51.24 142.171 51.192C142.171 51.132 142.177 51.084 142.189 51.048H143.755C143.743 51.096 143.737 51.138 143.737 51.174C143.737 51.21 143.737 51.246 143.737 51.282C143.749 51.702 143.857 52.032 144.061 52.272C144.277 52.512 144.571 52.68 144.943 52.776C145.315 52.872 145.729 52.92 146.185 52.92C146.581 52.92 146.947 52.872 147.283 52.776C147.619 52.668 147.883 52.512 148.075 52.308C148.279 52.092 148.381 51.822 148.381 51.498C148.381 51.102 148.249 50.802 147.985 50.598C147.733 50.382 147.397 50.214 146.977 50.094C146.557 49.974 146.119 49.848 145.663 49.716C145.279 49.608 144.895 49.488 144.511 49.356C144.127 49.224 143.779 49.062 143.467 48.87C143.167 48.678 142.921 48.432 142.729 48.132C142.549 47.82 142.459 47.43 142.459 46.962C142.459 46.542 142.543 46.17 142.711 45.846C142.891 45.522 143.143 45.246 143.467 45.018C143.791 44.79 144.181 44.622 144.637 44.514C145.105 44.394 145.621 44.334 146.185 44.334C146.785 44.334 147.307 44.4 147.751 44.532C148.207 44.664 148.585 44.85 148.885 45.09C149.185 45.33 149.407 45.606 149.551 45.918C149.695 46.218 149.767 46.542 149.767 46.89C149.767 46.962 149.767 47.034 149.767 47.106C149.767 47.166 149.761 47.214 149.749 47.25H148.201V47.052C148.201 46.812 148.135 46.584 148.003 46.368C147.883 46.14 147.667 45.96 147.355 45.828C147.055 45.684 146.635 45.612 146.095 45.612C145.747 45.612 145.447 45.642 145.195 45.702C144.943 45.75 144.733 45.834 144.565 45.954C144.397 46.062 144.271 46.194 144.187 46.35C144.103 46.494 144.061 46.662 144.061 46.854C144.061 47.166 144.163 47.406 144.367 47.574C144.571 47.742 144.841 47.88 145.177 47.988C145.525 48.096 145.897 48.216 146.293 48.348C146.713 48.468 147.139 48.594 147.571 48.726C148.015 48.846 148.417 49.002 148.777 49.194C149.149 49.386 149.443 49.65 149.659 49.986C149.887 50.31 150.001 50.742 150.001 51.282C150.001 51.786 149.905 52.224 149.713 52.596C149.521 52.968 149.245 53.274 148.885 53.514C148.537 53.754 148.123 53.928 147.643 54.036C147.175 54.156 146.659 54.216 146.095 54.216ZM151.778 42.75V40.986H153.362V42.75H151.778ZM151.778 54V44.532H153.362V54H151.778ZM157.243 57.276C156.787 57.276 156.367 57.18 155.983 56.988C155.599 56.808 155.293 56.544 155.065 56.196C154.837 55.848 154.723 55.434 154.723 54.954C154.723 54.426 154.867 53.988 155.155 53.64C155.455 53.292 155.809 53.034 156.217 52.866C155.917 52.722 155.683 52.524 155.515 52.272C155.347 52.008 155.263 51.72 155.263 51.408C155.263 50.988 155.413 50.634 155.713 50.346C156.025 50.058 156.403 49.866 156.847 49.77C156.439 49.506 156.115 49.17 155.875 48.762C155.647 48.342 155.533 47.88 155.533 47.376C155.533 46.776 155.671 46.248 155.947 45.792C156.235 45.336 156.667 44.976 157.243 44.712C157.831 44.448 158.545 44.316 159.385 44.316C159.769 44.316 160.129 44.346 160.465 44.406C160.801 44.454 161.101 44.538 161.365 44.658C161.785 44.466 162.097 44.22 162.301 43.92C162.517 43.62 162.649 43.314 162.697 43.002H164.263C164.263 43.362 164.179 43.704 164.011 44.028C163.855 44.34 163.639 44.604 163.363 44.82C163.087 45.024 162.751 45.162 162.355 45.234C162.655 45.522 162.877 45.846 163.021 46.206C163.177 46.566 163.255 46.956 163.255 47.376C163.255 47.976 163.111 48.51 162.823 48.978C162.547 49.434 162.127 49.794 161.563 50.058C160.999 50.322 160.291 50.454 159.439 50.454H157.963C157.639 50.454 157.375 50.52 157.171 50.652C156.967 50.772 156.865 50.97 156.865 51.246C156.865 51.486 156.967 51.684 157.171 51.84C157.375 51.984 157.639 52.056 157.963 52.056H161.815C162.511 52.056 163.081 52.29 163.525 52.758C163.969 53.214 164.191 53.802 164.191 54.522C164.191 55.038 164.059 55.5 163.795 55.908C163.543 56.328 163.183 56.658 162.715 56.898C162.259 57.15 161.725 57.276 161.113 57.276H157.243ZM157.693 56.07H161.095C161.371 56.07 161.623 56.01 161.851 55.89C162.079 55.782 162.259 55.626 162.391 55.422C162.523 55.218 162.589 54.996 162.589 54.756C162.589 54.348 162.469 54.024 162.229 53.784C161.989 53.544 161.689 53.424 161.329 53.424H157.693C157.309 53.424 156.985 53.556 156.721 53.82C156.457 54.072 156.325 54.384 156.325 54.756C156.325 55.152 156.457 55.47 156.721 55.71C156.985 55.95 157.309 56.07 157.693 56.07ZM159.403 49.266C160.171 49.266 160.741 49.098 161.113 48.762C161.485 48.426 161.671 47.964 161.671 47.376C161.671 46.8 161.485 46.344 161.113 46.008C160.741 45.672 160.171 45.504 159.403 45.504C158.635 45.504 158.059 45.672 157.675 46.008C157.303 46.344 157.117 46.8 157.117 47.376C157.117 47.748 157.201 48.078 157.369 48.366C157.537 48.654 157.789 48.876 158.125 49.032C158.461 49.188 158.887 49.266 159.403 49.266ZM165.463 54V44.532H166.741L166.885 45.954H167.011C167.263 45.57 167.545 45.258 167.857 45.018C168.181 44.778 168.535 44.604 168.919 44.496C169.315 44.376 169.735 44.316 170.179 44.316C170.779 44.316 171.301 44.418 171.745 44.622C172.201 44.826 172.555 45.156 172.807 45.612C173.071 46.068 173.203 46.686 173.203 47.466V54H171.619V47.682C171.619 47.286 171.565 46.962 171.457 46.71C171.361 46.458 171.223 46.26 171.043 46.116C170.875 45.972 170.665 45.87 170.413 45.81C170.173 45.75 169.903 45.72 169.603 45.72C169.159 45.72 168.739 45.828 168.343 46.044C167.947 46.26 167.629 46.572 167.389 46.98C167.161 47.388 167.047 47.874 167.047 48.438V54H165.463ZM37.022 85.216C36.086 85.216 35.294 85.042 34.646 84.694C34.01 84.334 33.524 83.788 33.188 83.056C32.864 82.324 32.702 81.394 32.702 80.266C32.702 79.126 32.864 78.196 33.188 77.476C33.524 76.744 34.016 76.204 34.664 75.856C35.312 75.496 36.122 75.316 37.094 75.316C37.982 75.316 38.726 75.49 39.326 75.838C39.926 76.174 40.376 76.684 40.676 77.368C40.988 78.04 41.144 78.886 41.144 79.906V80.662H34.34C34.364 81.418 34.472 82.042 34.664 82.534C34.868 83.014 35.168 83.368 35.564 83.596C35.96 83.812 36.458 83.92 37.058 83.92C37.466 83.92 37.82 83.872 38.12 83.776C38.432 83.668 38.69 83.518 38.894 83.326C39.11 83.134 39.272 82.906 39.38 82.642C39.488 82.378 39.548 82.09 39.56 81.778H41.108C41.096 82.282 41 82.75 40.82 83.182C40.64 83.602 40.376 83.962 40.028 84.262C39.68 84.562 39.254 84.796 38.75 84.964C38.246 85.132 37.67 85.216 37.022 85.216ZM34.376 79.474H39.506C39.506 78.946 39.446 78.502 39.326 78.142C39.206 77.782 39.032 77.488 38.804 77.26C38.588 77.032 38.33 76.87 38.03 76.774C37.742 76.666 37.412 76.612 37.04 76.612C36.488 76.612 36.02 76.714 35.636 76.918C35.252 77.122 34.958 77.434 34.754 77.854C34.55 78.274 34.424 78.814 34.376 79.474ZM41.8806 85L45.2826 80.158L42.0426 75.532H43.9506L46.2546 78.916H46.3446L48.6486 75.532H50.4486L47.2086 80.104L50.6286 85H48.7386L46.2546 81.346H46.1646L43.6806 85H41.8806ZM51.9191 88.114V75.532H53.1791L53.3411 76.882H53.4671C53.7911 76.354 54.2051 75.964 54.7091 75.712C55.2131 75.448 55.7831 75.316 56.4191 75.316C57.2111 75.316 57.8831 75.49 58.4351 75.838C58.9871 76.186 59.4131 76.732 59.7131 77.476C60.0131 78.208 60.1631 79.162 60.1631 80.338C60.1631 81.442 60.0071 82.36 59.6951 83.092C59.3951 83.812 58.9691 84.346 58.4171 84.694C57.8651 85.042 57.2231 85.216 56.4911 85.216C56.0831 85.216 55.6991 85.168 55.3391 85.072C54.9791 84.976 54.6551 84.826 54.3671 84.622C54.0791 84.406 53.8271 84.136 53.6111 83.812H53.5031V88.114H51.9191ZM55.9871 83.83C56.5751 83.83 57.0551 83.716 57.4271 83.488C57.7991 83.248 58.0751 82.882 58.2551 82.39C58.4351 81.886 58.5251 81.244 58.5251 80.464V80.086C58.5251 79.258 58.4291 78.598 58.2371 78.106C58.0451 77.602 57.7631 77.242 57.3911 77.026C57.0311 76.81 56.5811 76.702 56.0411 76.702C55.4531 76.702 54.9671 76.834 54.5831 77.098C54.2111 77.35 53.9351 77.734 53.7551 78.25C53.5871 78.766 53.5031 79.396 53.5031 80.14V80.41C53.5031 81.07 53.5631 81.622 53.6831 82.066C53.8151 82.498 53.9951 82.846 54.2231 83.11C54.4631 83.374 54.7331 83.56 55.0331 83.668C55.3331 83.776 55.6511 83.83 55.9871 83.83ZM65.732 85.216C64.796 85.216 64.004 85.042 63.356 84.694C62.72 84.334 62.234 83.788 61.898 83.056C61.574 82.324 61.412 81.394 61.412 80.266C61.412 79.126 61.574 78.196 61.898 77.476C62.234 76.744 62.726 76.204 63.374 75.856C64.022 75.496 64.832 75.316 65.804 75.316C66.692 75.316 67.436 75.49 68.036 75.838C68.636 76.174 69.086 76.684 69.386 77.368C69.698 78.04 69.854 78.886 69.854 79.906V80.662H63.05C63.074 81.418 63.182 82.042 63.374 82.534C63.578 83.014 63.878 83.368 64.274 83.596C64.67 83.812 65.168 83.92 65.768 83.92C66.176 83.92 66.53 83.872 66.83 83.776C67.142 83.668 67.4 83.518 67.604 83.326C67.82 83.134 67.982 82.906 68.09 82.642C68.198 82.378 68.258 82.09 68.27 81.778H69.818C69.806 82.282 69.71 82.75 69.53 83.182C69.35 83.602 69.086 83.962 68.738 84.262C68.39 84.562 67.964 84.796 67.46 84.964C66.956 85.132 66.38 85.216 65.732 85.216ZM63.086 79.474H68.216C68.216 78.946 68.156 78.502 68.036 78.142C67.916 77.782 67.742 77.488 67.514 77.26C67.298 77.032 67.04 76.87 66.74 76.774C66.452 76.666 66.122 76.612 65.75 76.612C65.198 76.612 64.73 76.714 64.346 76.918C63.962 77.122 63.668 77.434 63.464 77.854C63.26 78.274 63.134 78.814 63.086 79.474ZM71.6333 85V75.532H72.9113L73.0553 77.098H73.1813C73.2773 76.798 73.4093 76.516 73.5773 76.252C73.7453 75.976 73.9733 75.754 74.2613 75.586C74.5493 75.406 74.9033 75.316 75.3233 75.316C75.5033 75.316 75.6653 75.334 75.8093 75.37C75.9653 75.394 76.0793 75.424 76.1513 75.46V76.918H75.5573C75.1493 76.918 74.7953 76.99 74.4953 77.134C74.2073 77.266 73.9673 77.458 73.7753 77.71C73.5833 77.962 73.4393 78.262 73.3433 78.61C73.2593 78.958 73.2173 79.33 73.2173 79.726V85H71.6333ZM79.6439 85.216C79.1519 85.216 78.7679 85.126 78.4919 84.946C78.2159 84.754 78.0179 84.508 77.8979 84.208C77.7779 83.896 77.7179 83.566 77.7179 83.218V76.864H76.4939V75.532H77.7539L78.0419 72.886H79.3019V75.532H81.0839V76.864H79.3019V82.984C79.3019 83.284 79.3559 83.512 79.4639 83.668C79.5719 83.812 79.7759 83.884 80.0759 83.884H81.0839V84.928C80.9639 84.988 80.8199 85.036 80.6519 85.072C80.4839 85.108 80.3099 85.138 80.1299 85.162C79.9619 85.198 79.7999 85.216 79.6439 85.216ZM85.9056 85.216C85.2576 85.216 84.6876 85.15 84.1956 85.018C83.7036 84.886 83.2956 84.694 82.9716 84.442C82.6476 84.19 82.4016 83.89 82.2336 83.542C82.0656 83.194 81.9816 82.798 81.9816 82.354C81.9816 82.294 81.9816 82.24 81.9816 82.192C81.9816 82.132 81.9876 82.084 81.9996 82.048H83.5656C83.5536 82.096 83.5476 82.138 83.5476 82.174C83.5476 82.21 83.5476 82.246 83.5476 82.282C83.5596 82.702 83.6676 83.032 83.8716 83.272C84.0876 83.512 84.3816 83.68 84.7536 83.776C85.1256 83.872 85.5396 83.92 85.9956 83.92C86.3916 83.92 86.7576 83.872 87.0936 83.776C87.4296 83.668 87.6936 83.512 87.8856 83.308C88.0896 83.092 88.1916 82.822 88.1916 82.498C88.1916 82.102 88.0596 81.802 87.7956 81.598C87.5436 81.382 87.2076 81.214 86.7876 81.094C86.3676 80.974 85.9296 80.848 85.4736 80.716C85.0896 80.608 84.7056 80.488 84.3216 80.356C83.9376 80.224 83.5896 80.062 83.2776 79.87C82.9776 79.678 82.7316 79.432 82.5396 79.132C82.3596 78.82 82.2696 78.43 82.2696 77.962C82.2696 77.542 82.3536 77.17 82.5216 76.846C82.7016 76.522 82.9536 76.246 83.2776 76.018C83.6016 75.79 83.9916 75.622 84.4476 75.514C84.9156 75.394 85.4316 75.334 85.9956 75.334C86.5956 75.334 87.1176 75.4 87.5616 75.532C88.0176 75.664 88.3956 75.85 88.6956 76.09C88.9956 76.33 89.2176 76.606 89.3616 76.918C89.5056 77.218 89.5776 77.542 89.5776 77.89C89.5776 77.962 89.5776 78.034 89.5776 78.106C89.5776 78.166 89.5716 78.214 89.5596 78.25H88.0116V78.052C88.0116 77.812 87.9456 77.584 87.8136 77.368C87.6936 77.14 87.4776 76.96 87.1656 76.828C86.8656 76.684 86.4456 76.612 85.9056 76.612C85.5576 76.612 85.2576 76.642 85.0056 76.702C84.7536 76.75 84.5436 76.834 84.3756 76.954C84.2076 77.062 84.0816 77.194 83.9976 77.35C83.9136 77.494 83.8716 77.662 83.8716 77.854C83.8716 78.166 83.9736 78.406 84.1776 78.574C84.3816 78.742 84.6516 78.88 84.9876 78.988C85.3356 79.096 85.7076 79.216 86.1036 79.348C86.5236 79.468 86.9496 79.594 87.3816 79.726C87.8256 79.846 88.2276 80.002 88.5876 80.194C88.9596 80.386 89.2536 80.65 89.4696 80.986C89.6976 81.31 89.8116 81.742 89.8116 82.282C89.8116 82.786 89.7156 83.224 89.5236 83.596C89.3316 83.968 89.0556 84.274 88.6956 84.514C88.3476 84.754 87.9336 84.928 87.4536 85.036C86.9856 85.156 86.4696 85.216 85.9056 85.216ZM96.9891 85L94.1271 75.532H95.7651L97.2051 80.734C97.2771 80.986 97.3431 81.262 97.4031 81.562C97.4751 81.85 97.5411 82.12 97.6011 82.372C97.6731 82.612 97.7211 82.798 97.7451 82.93H97.8531C97.9011 82.702 97.9551 82.444 98.0151 82.156C98.0871 81.868 98.1471 81.592 98.1951 81.328C98.2551 81.064 98.3031 80.86 98.3391 80.716L99.6351 75.532H101.345L102.659 80.716C102.707 80.92 102.761 81.16 102.821 81.436C102.881 81.7 102.941 81.964 103.001 82.228C103.073 82.492 103.121 82.726 103.145 82.93H103.253C103.301 82.738 103.355 82.516 103.415 82.264C103.475 82 103.541 81.736 103.613 81.472C103.685 81.196 103.751 80.956 103.811 80.752L105.233 75.532H106.745L103.901 85H102.281L101.057 80.104C101.009 79.876 100.949 79.612 100.877 79.312C100.805 79 100.733 78.688 100.661 78.376C100.601 78.052 100.547 77.77 100.499 77.53H100.391C100.367 77.71 100.325 77.938 100.265 78.214C100.217 78.49 100.157 78.796 100.085 79.132C100.013 79.456 99.9291 79.78 99.8331 80.104L98.6091 85H96.9891ZM107.999 85V71.986H109.583V76.72H109.709C109.949 76.396 110.219 76.132 110.519 75.928C110.819 75.724 111.149 75.574 111.509 75.478C111.881 75.37 112.283 75.316 112.715 75.316C113.315 75.316 113.837 75.418 114.281 75.622C114.737 75.826 115.091 76.156 115.343 76.612C115.607 77.068 115.739 77.686 115.739 78.466V85H114.155V78.682C114.155 78.286 114.101 77.962 113.993 77.71C113.897 77.458 113.759 77.26 113.579 77.116C113.411 76.972 113.201 76.87 112.949 76.81C112.709 76.75 112.439 76.72 112.139 76.72C111.695 76.72 111.275 76.828 110.879 77.044C110.483 77.248 110.165 77.554 109.925 77.962C109.697 78.358 109.583 78.85 109.583 79.438V85H107.999ZM121.85 85.216C120.89 85.216 120.08 85.042 119.42 84.694C118.772 84.334 118.274 83.788 117.926 83.056C117.59 82.324 117.422 81.394 117.422 80.266C117.422 79.126 117.59 78.196 117.926 77.476C118.274 76.744 118.772 76.204 119.42 75.856C120.08 75.496 120.89 75.316 121.85 75.316C122.81 75.316 123.614 75.496 124.262 75.856C124.922 76.204 125.42 76.744 125.756 77.476C126.092 78.196 126.26 79.126 126.26 80.266C126.26 81.394 126.092 82.324 125.756 83.056C125.42 83.788 124.922 84.334 124.262 84.694C123.614 85.042 122.81 85.216 121.85 85.216ZM121.85 83.884C122.462 83.884 122.972 83.764 123.38 83.524C123.788 83.284 124.094 82.912 124.298 82.408C124.514 81.892 124.622 81.244 124.622 80.464V80.068C124.622 79.276 124.514 78.628 124.298 78.124C124.094 77.62 123.788 77.248 123.38 77.008C122.972 76.768 122.462 76.648 121.85 76.648C121.238 76.648 120.722 76.768 120.302 77.008C119.894 77.248 119.588 77.62 119.384 78.124C119.18 78.628 119.078 79.276 119.078 80.068V80.464C119.078 81.244 119.18 81.892 119.384 82.408C119.588 82.912 119.894 83.284 120.302 83.524C120.722 83.764 121.238 83.884 121.85 83.884ZM135.229 85.216C134.317 85.216 133.549 85.042 132.925 84.694C132.313 84.334 131.845 83.788 131.521 83.056C131.209 82.312 131.053 81.382 131.053 80.266C131.053 79.15 131.209 78.226 131.521 77.494C131.845 76.762 132.319 76.216 132.943 75.856C133.579 75.496 134.359 75.316 135.283 75.316C135.931 75.316 136.489 75.4 136.957 75.568C137.437 75.736 137.833 75.982 138.145 76.306C138.457 76.63 138.685 77.02 138.829 77.476C138.985 77.932 139.063 78.454 139.063 79.042H137.461C137.461 78.49 137.383 78.04 137.227 77.692C137.083 77.332 136.849 77.068 136.525 76.9C136.201 76.72 135.775 76.63 135.247 76.63C134.719 76.63 134.263 76.75 133.879 76.99C133.495 77.218 133.201 77.584 132.997 78.088C132.793 78.592 132.691 79.258 132.691 80.086V80.464C132.691 81.244 132.787 81.892 132.979 82.408C133.183 82.924 133.477 83.302 133.861 83.542C134.245 83.782 134.713 83.902 135.265 83.902C135.805 83.902 136.237 83.806 136.561 83.614C136.897 83.422 137.137 83.146 137.281 82.786C137.437 82.426 137.515 81.994 137.515 81.49H139.063C139.063 82.018 138.985 82.51 138.829 82.966C138.685 83.422 138.457 83.818 138.145 84.154C137.833 84.49 137.437 84.754 136.957 84.946C136.477 85.126 135.901 85.216 135.229 85.216ZM143.159 85.216C142.811 85.216 142.463 85.174 142.115 85.09C141.767 85.006 141.443 84.868 141.143 84.676C140.843 84.484 140.603 84.22 140.423 83.884C140.243 83.536 140.153 83.104 140.153 82.588C140.153 81.94 140.309 81.406 140.621 80.986C140.933 80.566 141.365 80.242 141.917 80.014C142.481 79.774 143.147 79.612 143.915 79.528C144.683 79.432 145.517 79.384 146.417 79.384V78.304C146.417 77.956 146.357 77.656 146.237 77.404C146.117 77.152 145.901 76.96 145.589 76.828C145.289 76.684 144.857 76.612 144.293 76.612C143.753 76.612 143.321 76.684 142.997 76.828C142.685 76.96 142.463 77.134 142.331 77.35C142.211 77.566 142.151 77.806 142.151 78.07V78.34H140.621C140.609 78.28 140.603 78.22 140.603 78.16C140.603 78.1 140.603 78.028 140.603 77.944C140.603 77.368 140.759 76.888 141.071 76.504C141.395 76.108 141.845 75.814 142.421 75.622C142.997 75.418 143.657 75.316 144.401 75.316C145.193 75.316 145.853 75.43 146.381 75.658C146.921 75.886 147.323 76.21 147.587 76.63C147.863 77.05 148.001 77.554 148.001 78.142V83.272C148.001 83.5 148.055 83.662 148.163 83.758C148.271 83.842 148.403 83.884 148.559 83.884H149.261V84.928C149.093 85 148.907 85.06 148.703 85.108C148.499 85.168 148.265 85.198 148.001 85.198C147.689 85.198 147.431 85.132 147.227 85C147.023 84.88 146.867 84.712 146.759 84.496C146.651 84.268 146.579 84.016 146.543 83.74H146.417C146.201 84.04 145.925 84.304 145.589 84.532C145.265 84.748 144.899 84.916 144.491 85.036C144.083 85.156 143.639 85.216 143.159 85.216ZM143.555 83.884C143.939 83.884 144.299 83.824 144.635 83.704C144.983 83.584 145.289 83.416 145.553 83.2C145.817 82.972 146.027 82.702 146.183 82.39C146.339 82.078 146.417 81.736 146.417 81.364V80.572C145.445 80.572 144.617 80.626 143.933 80.734C143.249 80.842 142.721 81.034 142.349 81.31C141.989 81.586 141.809 81.976 141.809 82.48C141.809 82.804 141.881 83.068 142.025 83.272C142.169 83.476 142.373 83.632 142.637 83.74C142.901 83.836 143.207 83.884 143.555 83.884ZM150.411 85V75.532H151.689L151.833 76.954H151.959C152.211 76.57 152.493 76.258 152.805 76.018C153.129 75.778 153.483 75.604 153.867 75.496C154.263 75.376 154.683 75.316 155.127 75.316C155.727 75.316 156.249 75.418 156.693 75.622C157.149 75.826 157.503 76.156 157.755 76.612C158.019 77.068 158.151 77.686 158.151 78.466V85H156.567V78.682C156.567 78.286 156.513 77.962 156.405 77.71C156.309 77.458 156.171 77.26 155.991 77.116C155.823 76.972 155.613 76.87 155.361 76.81C155.121 76.75 154.851 76.72 154.551 76.72C154.107 76.72 153.687 76.828 153.291 77.044C152.895 77.26 152.577 77.572 152.337 77.98C152.109 78.388 151.995 78.874 151.995 79.438V85H150.411ZM168.456 85.216C167.82 85.216 167.25 85.09 166.746 84.838C166.242 84.574 165.828 84.178 165.504 83.65H165.378L165.216 85H163.956V71.986H165.54V76.72H165.648C165.864 76.384 166.116 76.114 166.404 75.91C166.692 75.706 167.016 75.556 167.376 75.46C167.736 75.364 168.12 75.316 168.528 75.316C169.26 75.316 169.902 75.49 170.454 75.838C171.006 76.186 171.432 76.72 171.732 77.44C172.044 78.16 172.2 79.078 172.2 80.194C172.2 81.37 172.05 82.33 171.75 83.074C171.45 83.806 171.024 84.346 170.472 84.694C169.92 85.042 169.248 85.216 168.456 85.216ZM168.078 83.83C168.618 83.83 169.068 83.722 169.428 83.506C169.8 83.29 170.082 82.936 170.274 82.444C170.466 81.94 170.562 81.28 170.562 80.464V80.086C170.562 79.294 170.472 78.652 170.292 78.16C170.112 77.656 169.836 77.29 169.464 77.062C169.092 76.822 168.612 76.702 168.024 76.702C167.688 76.702 167.37 76.756 167.07 76.864C166.77 76.972 166.5 77.158 166.26 77.422C166.032 77.686 165.852 78.04 165.72 78.484C165.6 78.928 165.54 79.474 165.54 80.122V80.41C165.54 81.154 165.624 81.778 165.792 82.282C165.972 82.786 166.248 83.17 166.62 83.434C167.004 83.698 167.49 83.83 168.078 83.83ZM173.989 85V75.532H175.267L175.411 77.098H175.537C175.633 76.798 175.765 76.516 175.933 76.252C176.101 75.976 176.329 75.754 176.617 75.586C176.905 75.406 177.259 75.316 177.679 75.316C177.859 75.316 178.021 75.334 178.165 75.37C178.321 75.394 178.435 75.424 178.507 75.46V76.918H177.913C177.505 76.918 177.151 76.99 176.851 77.134C176.563 77.266 176.323 77.458 176.131 77.71C175.939 77.962 175.795 78.262 175.699 78.61C175.615 78.958 175.573 79.33 175.573 79.726V85H173.989ZM179.785 73.75V71.986H181.369V73.75H179.785ZM179.785 85V75.532H181.369V85H179.785ZM183.648 85V75.532H184.926L185.07 76.954H185.196C185.448 76.57 185.73 76.258 186.042 76.018C186.366 75.778 186.72 75.604 187.104 75.496C187.5 75.376 187.92 75.316 188.364 75.316C188.964 75.316 189.486 75.418 189.93 75.622C190.386 75.826 190.74 76.156 190.992 76.612C191.256 77.068 191.388 77.686 191.388 78.466V85H189.804V78.682C189.804 78.286 189.75 77.962 189.642 77.71C189.546 77.458 189.408 77.26 189.228 77.116C189.06 76.972 188.85 76.87 188.598 76.81C188.358 76.75 188.088 76.72 187.788 76.72C187.344 76.72 186.924 76.828 186.528 77.044C186.132 77.26 185.814 77.572 185.574 77.98C185.346 78.388 185.232 78.874 185.232 79.438V85H183.648ZM195.213 88.276C194.757 88.276 194.337 88.18 193.953 87.988C193.569 87.808 193.263 87.544 193.035 87.196C192.807 86.848 192.693 86.434 192.693 85.954C192.693 85.426 192.837 84.988 193.125 84.64C193.425 84.292 193.779 84.034 194.187 83.866C193.887 83.722 193.653 83.524 193.485 83.272C193.317 83.008 193.233 82.72 193.233 82.408C193.233 81.988 193.383 81.634 193.683 81.346C193.995 81.058 194.373 80.866 194.817 80.77C194.409 80.506 194.085 80.17 193.845 79.762C193.617 79.342 193.503 78.88 193.503 78.376C193.503 77.776 193.641 77.248 193.917 76.792C194.205 76.336 194.637 75.976 195.213 75.712C195.801 75.448 196.515 75.316 197.355 75.316C197.739 75.316 198.099 75.346 198.435 75.406C198.771 75.454 199.071 75.538 199.335 75.658C199.755 75.466 200.067 75.22 200.271 74.92C200.487 74.62 200.619 74.314 200.667 74.002H202.233C202.233 74.362 202.149 74.704 201.981 75.028C201.825 75.34 201.609 75.604 201.333 75.82C201.057 76.024 200.721 76.162 200.325 76.234C200.625 76.522 200.847 76.846 200.991 77.206C201.147 77.566 201.225 77.956 201.225 78.376C201.225 78.976 201.081 79.51 200.793 79.978C200.517 80.434 200.097 80.794 199.533 81.058C198.969 81.322 198.261 81.454 197.409 81.454H195.933C195.609 81.454 195.345 81.52 195.141 81.652C194.937 81.772 194.835 81.97 194.835 82.246C194.835 82.486 194.937 82.684 195.141 82.84C195.345 82.984 195.609 83.056 195.933 83.056H199.785C200.481 83.056 201.051 83.29 201.495 83.758C201.939 84.214 202.161 84.802 202.161 85.522C202.161 86.038 202.029 86.5 201.765 86.908C201.513 87.328 201.153 87.658 200.685 87.898C200.229 88.15 199.695 88.276 199.083 88.276H195.213ZM195.663 87.07H199.065C199.341 87.07 199.593 87.01 199.821 86.89C200.049 86.782 200.229 86.626 200.361 86.422C200.493 86.218 200.559 85.996 200.559 85.756C200.559 85.348 200.439 85.024 200.199 84.784C199.959 84.544 199.659 84.424 199.299 84.424H195.663C195.279 84.424 194.955 84.556 194.691 84.82C194.427 85.072 194.295 85.384 194.295 85.756C194.295 86.152 194.427 86.47 194.691 86.71C194.955 86.95 195.279 87.07 195.663 87.07ZM197.373 80.266C198.141 80.266 198.711 80.098 199.083 79.762C199.455 79.426 199.641 78.964 199.641 78.376C199.641 77.8 199.455 77.344 199.083 77.008C198.711 76.672 198.141 76.504 197.373 76.504C196.605 76.504 196.029 76.672 195.645 77.008C195.273 77.344 195.087 77.8 195.087 78.376C195.087 78.748 195.171 79.078 195.339 79.366C195.507 79.654 195.759 79.876 196.095 80.032C196.431 80.188 196.857 80.266 197.373 80.266ZM34.052 119.276C33.764 119.276 33.512 119.252 33.296 119.204C33.092 119.168 32.954 119.144 32.882 119.132V117.98H33.674C33.962 117.98 34.244 117.92 34.52 117.8C34.796 117.68 35.054 117.476 35.294 117.188C35.534 116.9 35.738 116.504 35.906 116L32.234 106.532H33.89L35.78 111.41C35.864 111.638 35.96 111.92 36.068 112.256C36.188 112.58 36.302 112.916 36.41 113.264C36.53 113.612 36.626 113.918 36.698 114.182H36.806C36.854 113.99 36.914 113.774 36.986 113.534C37.058 113.294 37.13 113.048 37.202 112.796C37.286 112.532 37.364 112.286 37.436 112.058C37.52 111.818 37.586 111.608 37.634 111.428L39.236 106.532H40.838L37.634 115.73C37.454 116.246 37.256 116.72 37.04 117.152C36.824 117.596 36.584 117.974 36.32 118.286C36.056 118.598 35.738 118.838 35.366 119.006C34.994 119.186 34.556 119.276 34.052 119.276ZM45.9324 116.216C44.9724 116.216 44.1624 116.042 43.5024 115.694C42.8544 115.334 42.3564 114.788 42.0084 114.056C41.6724 113.324 41.5044 112.394 41.5044 111.266C41.5044 110.126 41.6724 109.196 42.0084 108.476C42.3564 107.744 42.8544 107.204 43.5024 106.856C44.1624 106.496 44.9724 106.316 45.9324 106.316C46.8924 106.316 47.6964 106.496 48.3444 106.856C49.0044 107.204 49.5024 107.744 49.8384 108.476C50.1744 109.196 50.3424 110.126 50.3424 111.266C50.3424 112.394 50.1744 113.324 49.8384 114.056C49.5024 114.788 49.0044 115.334 48.3444 115.694C47.6964 116.042 46.8924 116.216 45.9324 116.216ZM45.9324 114.884C46.5444 114.884 47.0544 114.764 47.4624 114.524C47.8704 114.284 48.1764 113.912 48.3804 113.408C48.5964 112.892 48.7044 112.244 48.7044 111.464V111.068C48.7044 110.276 48.5964 109.628 48.3804 109.124C48.1764 108.62 47.8704 108.248 47.4624 108.008C47.0544 107.768 46.5444 107.648 45.9324 107.648C45.3204 107.648 44.8044 107.768 44.3844 108.008C43.9764 108.248 43.6704 108.62 43.4664 109.124C43.2624 109.628 43.1604 110.276 43.1604 111.068V111.464C43.1604 112.244 43.2624 112.892 43.4664 113.408C43.6704 113.912 43.9764 114.284 44.3844 114.524C44.8044 114.764 45.3204 114.884 45.9324 114.884ZM55.064 116.216C54.152 116.216 53.42 115.982 52.868 115.514C52.316 115.046 52.04 114.23 52.04 113.066V106.532H53.624V112.85C53.624 113.246 53.672 113.57 53.768 113.822C53.864 114.074 54.002 114.272 54.182 114.416C54.362 114.56 54.572 114.662 54.812 114.722C55.064 114.782 55.334 114.812 55.622 114.812C56.078 114.812 56.498 114.704 56.882 114.488C57.266 114.272 57.578 113.96 57.818 113.552C58.07 113.132 58.196 112.646 58.196 112.094V106.532H59.78V116H58.502L58.358 114.578H58.232C57.98 114.962 57.692 115.274 57.368 115.514C57.056 115.754 56.702 115.928 56.306 116.036C55.922 116.156 55.508 116.216 55.064 116.216ZM62.0575 116V106.532H63.3355L63.4795 108.098H63.6055C63.7015 107.798 63.8335 107.516 64.0015 107.252C64.1695 106.976 64.3975 106.754 64.6855 106.586C64.9735 106.406 65.3275 106.316 65.7475 106.316C65.9275 106.316 66.0895 106.334 66.2335 106.37C66.3895 106.394 66.5035 106.424 66.5755 106.46V107.918H65.9815C65.5735 107.918 65.2195 107.99 64.9195 108.134C64.6315 108.266 64.3915 108.458 64.1995 108.71C64.0075 108.962 63.8635 109.262 63.7675 109.61C63.6835 109.958 63.6415 110.33 63.6415 110.726V116H62.0575ZM73.5862 116L70.0762 106.532H71.7322L73.4602 111.266C73.5442 111.494 73.6402 111.782 73.7482 112.13C73.8562 112.466 73.9642 112.814 74.0722 113.174C74.1922 113.522 74.2882 113.834 74.3602 114.11H74.4502C74.5342 113.846 74.6302 113.54 74.7382 113.192C74.8462 112.832 74.9542 112.484 75.0622 112.148C75.1822 111.8 75.2842 111.506 75.3682 111.266L77.0782 106.532H78.6802L75.1702 116H73.5862ZM79.9745 104.75V102.986H81.5585V104.75H79.9745ZM79.9745 116V106.532H81.5585V116H79.9745ZM87.1495 116.216C86.5015 116.216 85.9315 116.15 85.4395 116.018C84.9475 115.886 84.5395 115.694 84.2155 115.442C83.8915 115.19 83.6455 114.89 83.4775 114.542C83.3095 114.194 83.2255 113.798 83.2255 113.354C83.2255 113.294 83.2255 113.24 83.2255 113.192C83.2255 113.132 83.2315 113.084 83.2435 113.048H84.8095C84.7975 113.096 84.7915 113.138 84.7915 113.174C84.7915 113.21 84.7915 113.246 84.7915 113.282C84.8035 113.702 84.9115 114.032 85.1155 114.272C85.3315 114.512 85.6255 114.68 85.9975 114.776C86.3695 114.872 86.7835 114.92 87.2395 114.92C87.6355 114.92 88.0015 114.872 88.3375 114.776C88.6735 114.668 88.9375 114.512 89.1295 114.308C89.3335 114.092 89.4355 113.822 89.4355 113.498C89.4355 113.102 89.3035 112.802 89.0395 112.598C88.7875 112.382 88.4515 112.214 88.0315 112.094C87.6115 111.974 87.1735 111.848 86.7175 111.716C86.3335 111.608 85.9495 111.488 85.5655 111.356C85.1815 111.224 84.8335 111.062 84.5215 110.87C84.2215 110.678 83.9755 110.432 83.7835 110.132C83.6035 109.82 83.5135 109.43 83.5135 108.962C83.5135 108.542 83.5975 108.17 83.7655 107.846C83.9455 107.522 84.1975 107.246 84.5215 107.018C84.8455 106.79 85.2355 106.622 85.6915 106.514C86.1595 106.394 86.6755 106.334 87.2395 106.334C87.8395 106.334 88.3615 106.4 88.8055 106.532C89.2615 106.664 89.6395 106.85 89.9395 107.09C90.2395 107.33 90.4615 107.606 90.6055 107.918C90.7495 108.218 90.8215 108.542 90.8215 108.89C90.8215 108.962 90.8215 109.034 90.8215 109.106C90.8215 109.166 90.8155 109.214 90.8035 109.25H89.2555V109.052C89.2555 108.812 89.1895 108.584 89.0575 108.368C88.9375 108.14 88.7215 107.96 88.4095 107.828C88.1095 107.684 87.6895 107.612 87.1495 107.612C86.8015 107.612 86.5015 107.642 86.2495 107.702C85.9975 107.75 85.7875 107.834 85.6195 107.954C85.4515 108.062 85.3255 108.194 85.2415 108.35C85.1575 108.494 85.1155 108.662 85.1155 108.854C85.1155 109.166 85.2175 109.406 85.4215 109.574C85.6255 109.742 85.8955 109.88 86.2315 109.988C86.5795 110.096 86.9515 110.216 87.3475 110.348C87.7675 110.468 88.1935 110.594 88.6255 110.726C89.0695 110.846 89.4715 111.002 89.8315 111.194C90.2035 111.386 90.4975 111.65 90.7135 111.986C90.9415 112.31 91.0555 112.742 91.0555 113.282C91.0555 113.786 90.9595 114.224 90.7675 114.596C90.5755 114.968 90.2995 115.274 89.9395 115.514C89.5915 115.754 89.1775 115.928 88.6975 116.036C88.2295 116.156 87.7135 116.216 87.1495 116.216ZM92.8333 104.75V102.986H94.4173V104.75H92.8333ZM92.8333 116V106.532H94.4173V116H92.8333ZM100.584 116.216C99.6242 116.216 98.8142 116.042 98.1542 115.694C97.5062 115.334 97.0082 114.788 96.6602 114.056C96.3242 113.324 96.1562 112.394 96.1562 111.266C96.1562 110.126 96.3242 109.196 96.6602 108.476C97.0082 107.744 97.5062 107.204 98.1542 106.856C98.8142 106.496 99.6242 106.316 100.584 106.316C101.544 106.316 102.348 106.496 102.996 106.856C103.656 107.204 104.154 107.744 104.49 108.476C104.826 109.196 104.994 110.126 104.994 111.266C104.994 112.394 104.826 113.324 104.49 114.056C104.154 114.788 103.656 115.334 102.996 115.694C102.348 116.042 101.544 116.216 100.584 116.216ZM100.584 114.884C101.196 114.884 101.706 114.764 102.114 114.524C102.522 114.284 102.828 113.912 103.032 113.408C103.248 112.892 103.356 112.244 103.356 111.464V111.068C103.356 110.276 103.248 109.628 103.032 109.124C102.828 108.62 102.522 108.248 102.114 108.008C101.706 107.768 101.196 107.648 100.584 107.648C99.9722 107.648 99.4562 107.768 99.0362 108.008C98.6282 108.248 98.3222 108.62 98.1182 109.124C97.9142 109.628 97.8122 110.276 97.8122 111.068V111.464C97.8122 112.244 97.9142 112.892 98.1182 113.408C98.3222 113.912 98.6282 114.284 99.0362 114.524C99.4562 114.764 99.9722 114.884 100.584 114.884ZM106.782 116V106.532H108.06L108.204 107.954H108.33C108.582 107.57 108.864 107.258 109.176 107.018C109.5 106.778 109.854 106.604 110.238 106.496C110.634 106.376 111.054 106.316 111.498 106.316C112.098 106.316 112.62 106.418 113.064 106.622C113.52 106.826 113.874 107.156 114.126 107.612C114.39 108.068 114.522 108.686 114.522 109.466V116H112.938V109.682C112.938 109.286 112.884 108.962 112.776 108.71C112.68 108.458 112.542 108.26 112.362 108.116C112.194 107.972 111.984 107.87 111.732 107.81C111.492 107.75 111.222 107.72 110.922 107.72C110.478 107.72 110.058 107.828 109.662 108.044C109.266 108.26 108.948 108.572 108.708 108.98C108.48 109.388 108.366 109.874 108.366 110.438V116H106.782ZM122.54 116.216C122.048 116.216 121.664 116.126 121.388 115.946C121.112 115.754 120.914 115.508 120.794 115.208C120.674 114.896 120.614 114.566 120.614 114.218V107.864H119.39V106.532H120.65L120.938 103.886H122.198V106.532H123.98V107.864H122.198V113.984C122.198 114.284 122.252 114.512 122.36 114.668C122.468 114.812 122.672 114.884 122.972 114.884H123.98V115.928C123.86 115.988 123.716 116.036 123.548 116.072C123.38 116.108 123.206 116.138 123.026 116.162C122.858 116.198 122.696 116.216 122.54 116.216ZM129.378 116.216C128.418 116.216 127.608 116.042 126.948 115.694C126.3 115.334 125.802 114.788 125.454 114.056C125.118 113.324 124.95 112.394 124.95 111.266C124.95 110.126 125.118 109.196 125.454 108.476C125.802 107.744 126.3 107.204 126.948 106.856C127.608 106.496 128.418 106.316 129.378 106.316C130.338 106.316 131.142 106.496 131.79 106.856C132.45 107.204 132.948 107.744 133.284 108.476C133.62 109.196 133.788 110.126 133.788 111.266C133.788 112.394 133.62 113.324 133.284 114.056C132.948 114.788 132.45 115.334 131.79 115.694C131.142 116.042 130.338 116.216 129.378 116.216ZM129.378 114.884C129.99 114.884 130.5 114.764 130.908 114.524C131.316 114.284 131.622 113.912 131.826 113.408C132.042 112.892 132.15 112.244 132.15 111.464V111.068C132.15 110.276 132.042 109.628 131.826 109.124C131.622 108.62 131.316 108.248 130.908 108.008C130.5 107.768 129.99 107.648 129.378 107.648C128.766 107.648 128.25 107.768 127.83 108.008C127.422 108.248 127.116 108.62 126.912 109.124C126.708 109.628 126.606 110.276 126.606 111.068V111.464C126.606 112.244 126.708 112.892 126.912 113.408C127.116 113.912 127.422 114.284 127.83 114.524C128.25 114.764 128.766 114.884 129.378 114.884ZM139.157 116V102.986H140.741V116H139.157ZM143.02 104.75V102.986H144.604V104.75H143.02ZM143.02 116V106.532H144.604V116H143.02ZM147.261 116V107.864H145.857V106.532H147.261V105.02C147.261 104.648 147.315 104.3 147.423 103.976C147.531 103.64 147.735 103.37 148.035 103.166C148.335 102.95 148.755 102.842 149.295 102.842C149.463 102.842 149.625 102.854 149.781 102.878C149.949 102.89 150.105 102.914 150.249 102.95C150.405 102.974 150.543 103.004 150.663 103.04V104.174H149.709C149.409 104.174 149.187 104.252 149.043 104.408C148.911 104.552 148.845 104.762 148.845 105.038V106.532H150.663V107.864H148.845V116H147.261ZM155.44 116.216C154.504 116.216 153.712 116.042 153.064 115.694C152.428 115.334 151.942 114.788 151.606 114.056C151.282 113.324 151.12 112.394 151.12 111.266C151.12 110.126 151.282 109.196 151.606 108.476C151.942 107.744 152.434 107.204 153.082 106.856C153.73 106.496 154.54 106.316 155.512 106.316C156.4 106.316 157.144 106.49 157.744 106.838C158.344 107.174 158.794 107.684 159.094 108.368C159.406 109.04 159.562 109.886 159.562 110.906V111.662H152.758C152.782 112.418 152.89 113.042 153.082 113.534C153.286 114.014 153.586 114.368 153.982 114.596C154.378 114.812 154.876 114.92 155.476 114.92C155.884 114.92 156.238 114.872 156.538 114.776C156.85 114.668 157.108 114.518 157.312 114.326C157.528 114.134 157.69 113.906 157.798 113.642C157.906 113.378 157.966 113.09 157.978 112.778H159.526C159.514 113.282 159.418 113.75 159.238 114.182C159.058 114.602 158.794 114.962 158.446 115.262C158.098 115.562 157.672 115.796 157.168 115.964C156.664 116.132 156.088 116.216 155.44 116.216ZM152.794 110.474H157.924C157.924 109.946 157.864 109.502 157.744 109.142C157.624 108.782 157.45 108.488 157.222 108.26C157.006 108.032 156.748 107.87 156.448 107.774C156.16 107.666 155.83 107.612 155.458 107.612C154.906 107.612 154.438 107.714 154.054 107.918C153.67 108.122 153.376 108.434 153.172 108.854C152.968 109.274 152.842 109.814 152.794 110.474ZM164.42 112.814V111.806C164.42 111.338 164.492 110.948 164.636 110.636C164.78 110.324 164.966 110.054 165.194 109.826C165.434 109.598 165.68 109.388 165.932 109.196C166.196 108.992 166.442 108.788 166.67 108.584C166.91 108.368 167.102 108.122 167.246 107.846C167.39 107.558 167.462 107.216 167.462 106.82C167.462 106.664 167.438 106.478 167.39 106.262C167.354 106.034 167.258 105.818 167.102 105.614C166.958 105.398 166.736 105.218 166.436 105.074C166.136 104.93 165.74 104.858 165.248 104.858C164.696 104.858 164.258 104.948 163.934 105.128C163.61 105.296 163.364 105.512 163.196 105.776C163.04 106.04 162.932 106.298 162.872 106.55C162.824 106.802 162.8 107.012 162.8 107.18C162.8 107.264 162.8 107.348 162.8 107.432C162.8 107.504 162.806 107.588 162.818 107.684H161.216C161.204 107.636 161.192 107.564 161.18 107.468C161.168 107.36 161.162 107.228 161.162 107.072C161.162 106.796 161.204 106.496 161.288 106.172C161.372 105.848 161.51 105.524 161.702 105.2C161.894 104.876 162.152 104.582 162.476 104.318C162.8 104.054 163.196 103.844 163.664 103.688C164.144 103.52 164.708 103.436 165.356 103.436C165.944 103.436 166.454 103.508 166.886 103.652C167.318 103.784 167.678 103.97 167.966 104.21C168.266 104.438 168.5 104.696 168.668 104.984C168.848 105.26 168.974 105.542 169.046 105.83C169.13 106.118 169.172 106.388 169.172 106.64C169.172 107.216 169.094 107.702 168.938 108.098C168.782 108.494 168.578 108.83 168.326 109.106C168.086 109.37 167.828 109.604 167.552 109.808C167.288 110.012 167.03 110.216 166.778 110.42C166.526 110.612 166.322 110.834 166.166 111.086C166.01 111.326 165.932 111.626 165.932 111.986V112.814H164.42ZM164.294 116V114.11H166.058V116H164.294Z" fill="#222222"/>
<path d="M34.128 213V193.792H39.868L42.892 204.488C43.004 204.861 43.116 205.281 43.228 205.748C43.34 206.215 43.4427 206.663 43.536 207.092C43.648 207.521 43.732 207.895 43.788 208.212H44.012C44.0493 207.932 44.1053 207.587 44.18 207.176C44.2547 206.765 44.3387 206.327 44.432 205.86C44.544 205.375 44.6653 204.908 44.796 204.46L47.82 193.792H53.504V213H49.864V203.284C49.864 202.425 49.8733 201.567 49.892 200.708C49.9107 199.849 49.9293 199.112 49.948 198.496C49.9853 197.88 50.004 197.516 50.004 197.404H49.78C49.7427 197.572 49.6493 197.936 49.5 198.496C49.3507 199.056 49.192 199.663 49.024 200.316C48.856 200.969 48.7067 201.529 48.576 201.996L45.412 213H42.052L38.888 202.024C38.776 201.632 38.6453 201.165 38.496 200.624C38.3653 200.064 38.2253 199.495 38.076 198.916C37.9453 198.337 37.824 197.833 37.712 197.404H37.488C37.5067 197.908 37.5253 198.515 37.544 199.224C37.5627 199.915 37.5813 200.624 37.6 201.352C37.6187 202.061 37.628 202.705 37.628 203.284V213H34.128ZM63.493 213.336C61.925 213.336 60.6183 213.065 59.573 212.524C58.5277 211.964 57.7437 211.115 57.221 209.976C56.6983 208.837 56.437 207.391 56.437 205.636C56.437 203.863 56.6983 202.416 57.221 201.296C57.7437 200.157 58.5277 199.317 59.573 198.776C60.6183 198.216 61.925 197.936 63.493 197.936C64.9117 197.936 66.097 198.207 67.049 198.748C68.0197 199.271 68.7477 200.083 69.233 201.184C69.7183 202.285 69.961 203.713 69.961 205.468V206.476H59.937C59.9743 207.391 60.1143 208.165 60.357 208.8C60.5997 209.416 60.973 209.883 61.477 210.2C61.9997 210.499 62.681 210.648 63.521 210.648C63.9503 210.648 64.3517 210.592 64.725 210.48C65.0983 210.368 65.425 210.2 65.705 209.976C65.985 209.733 66.1997 209.435 66.349 209.08C66.517 208.725 66.601 208.315 66.601 207.848H69.961C69.961 208.781 69.793 209.593 69.457 210.284C69.1397 210.975 68.6823 211.544 68.085 211.992C67.5063 212.44 66.825 212.776 66.041 213C65.257 213.224 64.4077 213.336 63.493 213.336ZM59.993 204.068H66.405C66.405 203.452 66.3303 202.929 66.181 202.5C66.0503 202.071 65.8543 201.716 65.593 201.436C65.3503 201.156 65.0517 200.96 64.697 200.848C64.3423 200.717 63.941 200.652 63.493 200.652C62.765 200.652 62.149 200.773 61.645 201.016C61.1597 201.259 60.7863 201.632 60.525 202.136C60.2637 202.64 60.0863 203.284 59.993 204.068ZM78.9083 213.336C77.3403 213.336 76.0336 213.065 74.9883 212.524C73.943 211.964 73.159 211.115 72.6363 209.976C72.1136 208.837 71.8523 207.391 71.8523 205.636C71.8523 203.863 72.1136 202.416 72.6363 201.296C73.159 200.157 73.943 199.317 74.9883 198.776C76.0336 198.216 77.3403 197.936 78.9083 197.936C80.327 197.936 81.5123 198.207 82.4643 198.748C83.435 199.271 84.163 200.083 84.6483 201.184C85.1336 202.285 85.3763 203.713 85.3763 205.468V206.476H75.3523C75.3896 207.391 75.5296 208.165 75.7723 208.8C76.015 209.416 76.3883 209.883 76.8923 210.2C77.415 210.499 78.0963 210.648 78.9363 210.648C79.3656 210.648 79.767 210.592 80.1403 210.48C80.5136 210.368 80.8403 210.2 81.1203 209.976C81.4003 209.733 81.615 209.435 81.7643 209.08C81.9323 208.725 82.0163 208.315 82.0163 207.848H85.3763C85.3763 208.781 85.2083 209.593 84.8723 210.284C84.555 210.975 84.0976 211.544 83.5003 211.992C82.9216 212.44 82.2403 212.776 81.4563 213C80.6723 213.224 79.823 213.336 78.9083 213.336ZM75.4083 204.068H81.8203C81.8203 203.452 81.7456 202.929 81.5963 202.5C81.4656 202.071 81.2696 201.716 81.0083 201.436C80.7656 201.156 80.467 200.96 80.1123 200.848C79.7576 200.717 79.3563 200.652 78.9083 200.652C78.1803 200.652 77.5643 200.773 77.0603 201.016C76.575 201.259 76.2016 201.632 75.9403 202.136C75.679 202.64 75.5016 203.284 75.4083 204.068ZM91.8876 213.336C90.973 213.336 90.2543 213.159 89.7316 212.804C89.209 212.431 88.8356 211.964 88.6116 211.404C88.4063 210.825 88.3036 210.237 88.3036 209.64V201.072H86.5396V198.272H88.3876L89.0036 194.156H91.7196V198.272H94.2676V201.072H91.7196V209.304C91.7196 209.696 91.8223 210.004 92.0276 210.228C92.233 210.433 92.541 210.536 92.9516 210.536H94.2676V212.888C94.081 212.963 93.8476 213.028 93.5676 213.084C93.3063 213.159 93.0263 213.215 92.7276 213.252C92.429 213.308 92.149 213.336 91.8876 213.336ZM108.398 213.336C106.792 213.336 105.448 213.065 104.366 212.524C103.283 211.964 102.471 211.115 101.93 209.976C101.388 208.837 101.118 207.391 101.118 205.636C101.118 203.863 101.388 202.416 101.93 201.296C102.471 200.157 103.283 199.317 104.366 198.776C105.448 198.216 106.792 197.936 108.398 197.936C110.022 197.936 111.366 198.216 112.43 198.776C113.512 199.317 114.324 200.157 114.866 201.296C115.407 202.416 115.678 203.863 115.678 205.636C115.678 207.391 115.407 208.837 114.866 209.976C114.324 211.115 113.512 211.964 112.43 212.524C111.366 213.065 110.022 213.336 108.398 213.336ZM108.398 210.536C109.294 210.536 110.012 210.368 110.554 210.032C111.114 209.677 111.515 209.155 111.758 208.464C112.019 207.755 112.15 206.877 112.15 205.832V205.44C112.15 204.395 112.019 203.527 111.758 202.836C111.515 202.127 111.114 201.604 110.554 201.268C110.012 200.913 109.294 200.736 108.398 200.736C107.502 200.736 106.774 200.913 106.214 201.268C105.672 201.604 105.271 202.127 105.01 202.836C104.767 203.527 104.646 204.395 104.646 205.44V205.832C104.646 206.877 104.767 207.755 105.01 208.464C105.271 209.155 105.672 209.677 106.214 210.032C106.774 210.368 107.502 210.536 108.398 210.536ZM122.976 213.336C121.557 213.336 120.4 212.953 119.504 212.188C118.627 211.404 118.188 210.079 118.188 208.212V198.272H121.604V207.596C121.604 208.119 121.66 208.557 121.772 208.912C121.903 209.248 122.08 209.528 122.304 209.752C122.547 209.957 122.836 210.107 123.172 210.2C123.508 210.293 123.881 210.34 124.292 210.34C124.908 210.34 125.459 210.191 125.944 209.892C126.448 209.593 126.84 209.183 127.12 208.66C127.419 208.119 127.568 207.512 127.568 206.84V198.272H130.984V213H128.156L127.876 211.04H127.68C127.344 211.488 126.943 211.889 126.476 212.244C126.028 212.58 125.505 212.841 124.908 213.028C124.329 213.233 123.685 213.336 122.976 213.336ZM134.344 213V198.272H137.2L137.48 200.596H137.676C137.863 200.129 138.087 199.7 138.348 199.308C138.628 198.897 138.983 198.571 139.412 198.328C139.842 198.067 140.364 197.936 140.98 197.936C141.279 197.936 141.55 197.964 141.792 198.02C142.054 198.076 142.25 198.132 142.38 198.188V201.408H141.344C140.766 201.408 140.252 201.492 139.804 201.66C139.356 201.809 138.974 202.052 138.656 202.388C138.358 202.724 138.134 203.144 137.984 203.648C137.835 204.152 137.76 204.74 137.76 205.412V213H134.344ZM40.148 238.336C38.58 238.336 37.2733 238.065 36.228 237.524C35.1827 236.964 34.3987 236.115 33.876 234.976C33.3533 233.837 33.092 232.391 33.092 230.636C33.092 228.863 33.3533 227.416 33.876 226.296C34.3987 225.157 35.1827 224.317 36.228 223.776C37.2733 223.216 38.58 222.936 40.148 222.936C41.5667 222.936 42.752 223.207 43.704 223.748C44.6747 224.271 45.4027 225.083 45.888 226.184C46.3733 227.285 46.616 228.713 46.616 230.468V231.476H36.592C36.6293 232.391 36.7693 233.165 37.012 233.8C37.2547 234.416 37.628 234.883 38.132 235.2C38.6547 235.499 39.336 235.648 40.176 235.648C40.6053 235.648 41.0067 235.592 41.38 235.48C41.7533 235.368 42.08 235.2 42.36 234.976C42.64 234.733 42.8547 234.435 43.004 234.08C43.172 233.725 43.256 233.315 43.256 232.848H46.616C46.616 233.781 46.448 234.593 46.112 235.284C45.7947 235.975 45.3373 236.544 44.74 236.992C44.1613 237.44 43.48 237.776 42.696 238C41.912 238.224 41.0627 238.336 40.148 238.336ZM36.648 229.068H43.06C43.06 228.452 42.9853 227.929 42.836 227.5C42.7053 227.071 42.5093 226.716 42.248 226.436C42.0053 226.156 41.7067 225.96 41.352 225.848C40.9973 225.717 40.596 225.652 40.148 225.652C39.42 225.652 38.804 225.773 38.3 226.016C37.8147 226.259 37.4413 226.632 37.18 227.136C36.9187 227.64 36.7413 228.284 36.648 229.068ZM47.5586 238L52.8226 230.412L47.9226 223.272H52.0666L54.9786 227.836H55.1466L58.1146 223.272H62.0066L57.0786 230.328L62.2866 238H58.1986L54.9226 232.904H54.7546L51.4506 238H47.5586ZM64.1038 242.844V223.272H66.9318L67.2118 225.232H67.4078C67.8931 224.467 68.5278 223.897 69.3118 223.524C70.0958 223.132 70.9638 222.936 71.9158 222.936C73.1291 222.936 74.1651 223.207 75.0238 223.748C75.9011 224.289 76.5731 225.129 77.0398 226.268C77.5251 227.407 77.7678 228.872 77.7678 230.664C77.7678 232.419 77.5251 233.865 77.0398 235.004C76.5544 236.143 75.8824 236.983 75.0238 237.524C74.1838 238.065 73.2131 238.336 72.1118 238.336C71.4398 238.336 70.8238 238.261 70.2638 238.112C69.7038 237.963 69.2091 237.739 68.7798 237.44C68.3504 237.123 67.9864 236.74 67.6878 236.292H67.5198V242.844H64.1038ZM70.8518 235.396C71.6918 235.396 72.3544 235.237 72.8398 234.92C73.3438 234.584 73.6984 234.08 73.9038 233.408C74.1278 232.736 74.2398 231.887 74.2398 230.86V230.468C74.2398 229.423 74.1278 228.564 73.9038 227.892C73.6984 227.201 73.3438 226.697 72.8398 226.38C72.3544 226.044 71.6918 225.876 70.8518 225.876C70.0864 225.876 69.4518 226.053 68.9478 226.408C68.4624 226.763 68.0984 227.285 67.8558 227.976C67.6318 228.648 67.5198 229.479 67.5198 230.468V230.804C67.5198 231.532 67.5851 232.185 67.7158 232.764C67.8464 233.324 68.0424 233.8 68.3038 234.192C68.5838 234.584 68.9291 234.883 69.3398 235.088C69.7691 235.293 70.2731 235.396 70.8518 235.396ZM86.7221 238.336C85.1541 238.336 83.8474 238.065 82.8021 237.524C81.7567 236.964 80.9727 236.115 80.4501 234.976C79.9274 233.837 79.6661 232.391 79.6661 230.636C79.6661 228.863 79.9274 227.416 80.4501 226.296C80.9727 225.157 81.7567 224.317 82.8021 223.776C83.8474 223.216 85.1541 222.936 86.7221 222.936C88.1407 222.936 89.3261 223.207 90.2781 223.748C91.2487 224.271 91.9767 225.083 92.4621 226.184C92.9474 227.285 93.1901 228.713 93.1901 230.468V231.476H83.1661C83.2034 232.391 83.3434 233.165 83.5861 233.8C83.8287 234.416 84.2021 234.883 84.7061 235.2C85.2287 235.499 85.9101 235.648 86.7501 235.648C87.1794 235.648 87.5807 235.592 87.9541 235.48C88.3274 235.368 88.6541 235.2 88.9341 234.976C89.2141 234.733 89.4287 234.435 89.5781 234.08C89.7461 233.725 89.8301 233.315 89.8301 232.848H93.1901C93.1901 233.781 93.0221 234.593 92.6861 235.284C92.3687 235.975 91.9114 236.544 91.3141 236.992C90.7354 237.44 90.0541 237.776 89.2701 238C88.4861 238.224 87.6367 238.336 86.7221 238.336ZM83.2221 229.068H89.6341C89.6341 228.452 89.5594 227.929 89.4101 227.5C89.2794 227.071 89.0834 226.716 88.8221 226.436C88.5794 226.156 88.2807 225.96 87.9261 225.848C87.5714 225.717 87.1701 225.652 86.7221 225.652C85.9941 225.652 85.3781 225.773 84.8741 226.016C84.3887 226.259 84.0154 226.632 83.7541 227.136C83.4927 227.64 83.3154 228.284 83.2221 229.068ZM95.8094 238V223.272H98.6654L98.9454 225.596H99.1414C99.328 225.129 99.552 224.7 99.8134 224.308C100.093 223.897 100.448 223.571 100.877 223.328C101.307 223.067 101.829 222.936 102.445 222.936C102.744 222.936 103.015 222.964 103.257 223.02C103.519 223.076 103.715 223.132 103.845 223.188V226.408H102.809C102.231 226.408 101.717 226.492 101.269 226.66C100.821 226.809 100.439 227.052 100.121 227.388C99.8227 227.724 99.5987 228.144 99.4494 228.648C99.3 229.152 99.2254 229.74 99.2254 230.412V238H95.8094ZM109.566 238.336C108.651 238.336 107.933 238.159 107.41 237.804C106.887 237.431 106.514 236.964 106.29 236.404C106.085 235.825 105.982 235.237 105.982 234.64V226.072H104.218V223.272H106.066L106.682 219.156H109.398V223.272H111.946V226.072H109.398V234.304C109.398 234.696 109.501 235.004 109.706 235.228C109.911 235.433 110.219 235.536 110.63 235.536H111.946V237.888C111.759 237.963 111.526 238.028 111.246 238.084C110.985 238.159 110.705 238.215 110.406 238.252C110.107 238.308 109.827 238.336 109.566 238.336Z" fill="#222222"/>
<circle cx="193" cy="216" r="32" fill="white"/>
<path d="M205.233 210.388C205.448 209.588 204.973 208.766 204.173 208.551L191.133 205.057C190.333 204.843 189.51 205.318 189.296 206.118C189.081 206.918 189.556 207.74 190.356 207.955L201.947 211.061L198.842 222.652C198.627 223.452 199.102 224.274 199.902 224.489C200.703 224.703 201.525 224.228 201.739 223.428L205.233 210.388ZM183.75 223.299L204.535 211.299L203.035 208.701L182.25 220.701L183.75 223.299Z" fill="#222222"/>
</svg>
