<svg width="257" height="280" viewBox="0 0 257 280" fill="none" xmlns="http://www.w3.org/2000/svg">
<rect width="257" height="280" rx="32" fill="#2B2B2B"/>
<path d="M33.548 54V41.652H43.052V43.128H35.258V46.944H42.26V48.42H35.258V52.524H43.16V54H33.548ZM47.7456 54L44.2356 44.532H45.8916L47.6196 49.266C47.7036 49.494 47.7996 49.782 47.9076 50.13C48.0156 50.466 48.1236 50.814 48.2316 51.174C48.3516 51.522 48.4476 51.834 48.5196 52.11H48.6096C48.6936 51.846 48.7896 51.54 48.8976 51.192C49.0056 50.832 49.1136 50.484 49.2216 50.148C49.3416 49.8 49.4436 49.506 49.5276 49.266L51.2376 44.532H52.8396L49.3296 54H47.7456ZM57.8261 54.216C56.8901 54.216 56.0981 54.042 55.4501 53.694C54.8141 53.334 54.3281 52.788 53.9921 52.056C53.6681 51.324 53.5061 50.394 53.5061 49.266C53.5061 48.126 53.6681 47.196 53.9921 46.476C54.3281 45.744 54.8201 45.204 55.4681 44.856C56.1161 44.496 56.9261 44.316 57.8981 44.316C58.7861 44.316 59.5301 44.49 60.1301 44.838C60.7301 45.174 61.1801 45.684 61.4801 46.368C61.7921 47.04 61.9481 47.886 61.9481 48.906V49.662H55.1441C55.1681 50.418 55.2761 51.042 55.4681 51.534C55.6721 52.014 55.9721 52.368 56.3681 52.596C56.7641 52.812 57.2621 52.92 57.8621 52.92C58.2701 52.92 58.6241 52.872 58.9241 52.776C59.2361 52.668 59.4941 52.518 59.6981 52.326C59.9141 52.134 60.0761 51.906 60.1841 51.642C60.2921 51.378 60.3521 51.09 60.3641 50.778H61.9121C61.9001 51.282 61.8041 51.75 61.6241 52.182C61.4441 52.602 61.1801 52.962 60.8321 53.262C60.4841 53.562 60.0581 53.796 59.5541 53.964C59.0501 54.132 58.4741 54.216 57.8261 54.216ZM55.1801 48.474H60.3101C60.3101 47.946 60.2501 47.502 60.1301 47.142C60.0101 46.782 59.8361 46.488 59.6081 46.26C59.3921 46.032 59.1341 45.87 58.8341 45.774C58.5461 45.666 58.2161 45.612 57.8441 45.612C57.2921 45.612 56.8241 45.714 56.4401 45.918C56.0561 46.122 55.7621 46.434 55.5581 46.854C55.3541 47.274 55.2281 47.814 55.1801 48.474ZM63.7274 54V44.532H65.0054L65.1494 46.098H65.2754C65.3714 45.798 65.5034 45.516 65.6714 45.252C65.8394 44.976 66.0674 44.754 66.3554 44.586C66.6434 44.406 66.9974 44.316 67.4174 44.316C67.5974 44.316 67.7594 44.334 67.9034 44.37C68.0594 44.394 68.1734 44.424 68.2454 44.46V45.918H67.6514C67.2434 45.918 66.8894 45.99 66.5894 46.134C66.3014 46.266 66.0614 46.458 65.8694 46.71C65.6774 46.962 65.5334 47.262 65.4374 47.61C65.3534 47.958 65.3114 48.33 65.3114 48.726V54H63.7274ZM74.5721 54L71.7101 44.532H73.3481L74.7881 49.734C74.8601 49.986 74.9261 50.262 74.9861 50.562C75.0581 50.85 75.1241 51.12 75.1841 51.372C75.2561 51.612 75.3041 51.798 75.3281 51.93H75.4361C75.4841 51.702 75.5381 51.444 75.5981 51.156C75.6701 50.868 75.7301 50.592 75.7781 50.328C75.8381 50.064 75.8861 49.86 75.9221 49.716L77.2181 44.532H78.9281L80.2421 49.716C80.2901 49.92 80.3441 50.16 80.4041 50.436C80.4641 50.7 80.5241 50.964 80.5841 51.228C80.6561 51.492 80.7041 51.726 80.7281 51.93H80.8361C80.8841 51.738 80.9381 51.516 80.9981 51.264C81.0581 51 81.1241 50.736 81.1961 50.472C81.2681 50.196 81.3341 49.956 81.3941 49.752L82.8161 44.532H84.3281L81.4841 54H79.8641L78.6401 49.104C78.5921 48.876 78.5321 48.612 78.4601 48.312C78.3881 48 78.3161 47.688 78.2441 47.376C78.1841 47.052 78.1301 46.77 78.0821 46.53H77.9741C77.9501 46.71 77.9081 46.938 77.8481 47.214C77.8001 47.49 77.7401 47.796 77.6681 48.132C77.5961 48.456 77.5121 48.78 77.4161 49.104L76.1921 54H74.5721ZM89.382 54.216C88.422 54.216 87.612 54.042 86.952 53.694C86.304 53.334 85.806 52.788 85.458 52.056C85.122 51.324 84.954 50.394 84.954 49.266C84.954 48.126 85.122 47.196 85.458 46.476C85.806 45.744 86.304 45.204 86.952 44.856C87.612 44.496 88.422 44.316 89.382 44.316C90.342 44.316 91.146 44.496 91.794 44.856C92.454 45.204 92.952 45.744 93.288 46.476C93.624 47.196 93.792 48.126 93.792 49.266C93.792 50.394 93.624 51.324 93.288 52.056C92.952 52.788 92.454 53.334 91.794 53.694C91.146 54.042 90.342 54.216 89.382 54.216ZM89.382 52.884C89.994 52.884 90.504 52.764 90.912 52.524C91.32 52.284 91.626 51.912 91.83 51.408C92.046 50.892 92.154 50.244 92.154 49.464V49.068C92.154 48.276 92.046 47.628 91.83 47.124C91.626 46.62 91.32 46.248 90.912 46.008C90.504 45.768 89.994 45.648 89.382 45.648C88.77 45.648 88.254 45.768 87.834 46.008C87.426 46.248 87.12 46.62 86.916 47.124C86.712 47.628 86.61 48.276 86.61 49.068V49.464C86.61 50.244 86.712 50.892 86.916 51.408C87.12 51.912 87.426 52.284 87.834 52.524C88.254 52.764 88.77 52.884 89.382 52.884ZM95.5797 54V44.532H96.8577L97.0017 45.954H97.1277C97.3797 45.57 97.6617 45.258 97.9737 45.018C98.2977 44.778 98.6517 44.604 99.0357 44.496C99.4317 44.376 99.8517 44.316 100.296 44.316C100.896 44.316 101.418 44.418 101.862 44.622C102.318 44.826 102.672 45.156 102.924 45.612C103.188 46.068 103.32 46.686 103.32 47.466V54H101.736V47.682C101.736 47.286 101.682 46.962 101.574 46.71C101.478 46.458 101.34 46.26 101.16 46.116C100.992 45.972 100.782 45.87 100.53 45.81C100.29 45.75 100.02 45.72 99.7197 45.72C99.2757 45.72 98.8557 45.828 98.4597 46.044C98.0637 46.26 97.7457 46.572 97.5057 46.98C97.2777 47.388 97.1637 47.874 97.1637 48.438V54H95.5797ZM108.764 54.216C107.984 54.216 107.312 54.042 106.748 53.694C106.196 53.346 105.764 52.806 105.452 52.074C105.152 51.33 105.002 50.37 105.002 49.194C105.002 48.078 105.158 47.16 105.47 46.44C105.782 45.72 106.214 45.186 106.766 44.838C107.318 44.49 107.96 44.316 108.692 44.316C109.112 44.316 109.502 44.364 109.862 44.46C110.222 44.556 110.54 44.706 110.816 44.91C111.104 45.114 111.356 45.384 111.572 45.72H111.68V40.986H113.264V54H111.986L111.842 52.65H111.716C111.392 53.178 110.972 53.574 110.456 53.838C109.94 54.09 109.376 54.216 108.764 54.216ZM109.142 52.83C109.742 52.83 110.228 52.698 110.6 52.434C110.972 52.17 111.242 51.786 111.41 51.282C111.59 50.778 111.68 50.154 111.68 49.41V49.122C111.68 48.474 111.614 47.928 111.482 47.484C111.35 47.04 111.17 46.686 110.942 46.422C110.714 46.158 110.45 45.972 110.15 45.864C109.85 45.756 109.532 45.702 109.196 45.702C108.608 45.702 108.128 45.822 107.756 46.062C107.384 46.29 107.108 46.656 106.928 47.16C106.748 47.652 106.658 48.294 106.658 49.086V49.464C106.658 50.28 106.754 50.94 106.946 51.444C107.138 51.936 107.414 52.29 107.774 52.506C108.146 52.722 108.602 52.83 109.142 52.83ZM119.355 54.216C118.419 54.216 117.627 54.042 116.979 53.694C116.343 53.334 115.857 52.788 115.521 52.056C115.197 51.324 115.035 50.394 115.035 49.266C115.035 48.126 115.197 47.196 115.521 46.476C115.857 45.744 116.349 45.204 116.997 44.856C117.645 44.496 118.455 44.316 119.427 44.316C120.315 44.316 121.059 44.49 121.659 44.838C122.259 45.174 122.709 45.684 123.009 46.368C123.321 47.04 123.477 47.886 123.477 48.906V49.662H116.673C116.697 50.418 116.805 51.042 116.997 51.534C117.201 52.014 117.501 52.368 117.897 52.596C118.293 52.812 118.791 52.92 119.391 52.92C119.799 52.92 120.153 52.872 120.453 52.776C120.765 52.668 121.023 52.518 121.227 52.326C121.443 52.134 121.605 51.906 121.713 51.642C121.821 51.378 121.881 51.09 121.893 50.778H123.441C123.429 51.282 123.333 51.75 123.153 52.182C122.973 52.602 122.709 52.962 122.361 53.262C122.013 53.562 121.587 53.796 121.083 53.964C120.579 54.132 120.003 54.216 119.355 54.216ZM116.709 48.474H121.839C121.839 47.946 121.779 47.502 121.659 47.142C121.539 46.782 121.365 46.488 121.137 46.26C120.921 46.032 120.663 45.87 120.363 45.774C120.075 45.666 119.745 45.612 119.373 45.612C118.821 45.612 118.353 45.714 117.969 45.918C117.585 46.122 117.291 46.434 117.087 46.854C116.883 47.274 116.757 47.814 116.709 48.474ZM125.256 54V44.532H126.534L126.678 46.098H126.804C126.9 45.798 127.032 45.516 127.2 45.252C127.368 44.976 127.596 44.754 127.884 44.586C128.172 44.406 128.526 44.316 128.946 44.316C129.126 44.316 129.288 44.334 129.432 44.37C129.588 44.394 129.702 44.424 129.774 44.46V45.918H129.18C128.772 45.918 128.418 45.99 128.118 46.134C127.83 46.266 127.59 46.458 127.398 46.71C127.206 46.962 127.062 47.262 126.966 47.61C126.882 47.958 126.84 48.33 126.84 48.726V54H125.256ZM134.657 54.216C133.721 54.216 132.929 54.042 132.281 53.694C131.645 53.334 131.159 52.788 130.823 52.056C130.499 51.324 130.337 50.394 130.337 49.266C130.337 48.126 130.499 47.196 130.823 46.476C131.159 45.744 131.651 45.204 132.299 44.856C132.947 44.496 133.757 44.316 134.729 44.316C135.617 44.316 136.361 44.49 136.961 44.838C137.561 45.174 138.011 45.684 138.311 46.368C138.623 47.04 138.779 47.886 138.779 48.906V49.662H131.975C131.999 50.418 132.107 51.042 132.299 51.534C132.503 52.014 132.803 52.368 133.199 52.596C133.595 52.812 134.093 52.92 134.693 52.92C135.101 52.92 135.455 52.872 135.755 52.776C136.067 52.668 136.325 52.518 136.529 52.326C136.745 52.134 136.907 51.906 137.015 51.642C137.123 51.378 137.183 51.09 137.195 50.778H138.743C138.731 51.282 138.635 51.75 138.455 52.182C138.275 52.602 138.011 52.962 137.663 53.262C137.315 53.562 136.889 53.796 136.385 53.964C135.881 54.132 135.305 54.216 134.657 54.216ZM132.011 48.474H137.141C137.141 47.946 137.081 47.502 136.961 47.142C136.841 46.782 136.667 46.488 136.439 46.26C136.223 46.032 135.965 45.87 135.665 45.774C135.377 45.666 135.047 45.612 134.675 45.612C134.123 45.612 133.655 45.714 133.271 45.918C132.887 46.122 132.593 46.434 132.389 46.854C132.185 47.274 132.059 47.814 132.011 48.474ZM143.781 54.216C143.001 54.216 142.329 54.042 141.765 53.694C141.213 53.346 140.781 52.806 140.469 52.074C140.169 51.33 140.019 50.37 140.019 49.194C140.019 48.078 140.175 47.16 140.487 46.44C140.799 45.72 141.231 45.186 141.783 44.838C142.335 44.49 142.977 44.316 143.709 44.316C144.129 44.316 144.519 44.364 144.879 44.46C145.239 44.556 145.557 44.706 145.833 44.91C146.121 45.114 146.373 45.384 146.589 45.72H146.697V40.986H148.281V54H147.003L146.859 52.65H146.733C146.409 53.178 145.989 53.574 145.473 53.838C144.957 54.09 144.393 54.216 143.781 54.216ZM144.159 52.83C144.759 52.83 145.245 52.698 145.617 52.434C145.989 52.17 146.259 51.786 146.427 51.282C146.607 50.778 146.697 50.154 146.697 49.41V49.122C146.697 48.474 146.631 47.928 146.499 47.484C146.367 47.04 146.187 46.686 145.959 46.422C145.731 46.158 145.467 45.972 145.167 45.864C144.867 45.756 144.549 45.702 144.213 45.702C143.625 45.702 143.145 45.822 142.773 46.062C142.401 46.29 142.125 46.656 141.945 47.16C141.765 47.652 141.675 48.294 141.675 49.086V49.464C141.675 50.28 141.771 50.94 141.963 51.444C142.155 51.936 142.431 52.29 142.791 52.506C143.163 52.722 143.619 52.83 144.159 52.83ZM154.173 54V40.986H155.757V45.72H155.883C156.123 45.396 156.393 45.132 156.693 44.928C156.993 44.724 157.323 44.574 157.683 44.478C158.055 44.37 158.457 44.316 158.889 44.316C159.489 44.316 160.011 44.418 160.455 44.622C160.911 44.826 161.265 45.156 161.517 45.612C161.781 46.068 161.913 46.686 161.913 47.466V54H160.329V47.682C160.329 47.286 160.275 46.962 160.167 46.71C160.071 46.458 159.933 46.26 159.753 46.116C159.585 45.972 159.375 45.87 159.123 45.81C158.883 45.75 158.613 45.72 158.313 45.72C157.869 45.72 157.449 45.828 157.053 46.044C156.657 46.248 156.339 46.554 156.099 46.962C155.871 47.358 155.757 47.85 155.757 48.438V54H154.173ZM168.024 54.216C167.064 54.216 166.254 54.042 165.594 53.694C164.946 53.334 164.448 52.788 164.1 52.056C163.764 51.324 163.596 50.394 163.596 49.266C163.596 48.126 163.764 47.196 164.1 46.476C164.448 45.744 164.946 45.204 165.594 44.856C166.254 44.496 167.064 44.316 168.024 44.316C168.984 44.316 169.788 44.496 170.436 44.856C171.096 45.204 171.594 45.744 171.93 46.476C172.266 47.196 172.434 48.126 172.434 49.266C172.434 50.394 172.266 51.324 171.93 52.056C171.594 52.788 171.096 53.334 170.436 53.694C169.788 54.042 168.984 54.216 168.024 54.216ZM168.024 52.884C168.636 52.884 169.146 52.764 169.554 52.524C169.962 52.284 170.268 51.912 170.472 51.408C170.688 50.892 170.796 50.244 170.796 49.464V49.068C170.796 48.276 170.688 47.628 170.472 47.124C170.268 46.62 169.962 46.248 169.554 46.008C169.146 45.768 168.636 45.648 168.024 45.648C167.412 45.648 166.896 45.768 166.476 46.008C166.068 46.248 165.762 46.62 165.558 47.124C165.354 47.628 165.252 48.276 165.252 49.068V49.464C165.252 50.244 165.354 50.892 165.558 51.408C165.762 51.912 166.068 52.284 166.476 52.524C166.896 52.764 167.412 52.884 168.024 52.884ZM175.951 54L173.089 44.532H174.727L176.167 49.734C176.239 49.986 176.305 50.262 176.365 50.562C176.437 50.85 176.503 51.12 176.563 51.372C176.635 51.612 176.683 51.798 176.707 51.93H176.815C176.863 51.702 176.917 51.444 176.977 51.156C177.049 50.868 177.109 50.592 177.157 50.328C177.217 50.064 177.265 49.86 177.301 49.716L178.597 44.532H180.307L181.621 49.716C181.669 49.92 181.723 50.16 181.783 50.436C181.843 50.7 181.903 50.964 181.963 51.228C182.035 51.492 182.083 51.726 182.107 51.93H182.215C182.263 51.738 182.317 51.516 182.377 51.264C182.437 51 182.503 50.736 182.575 50.472C182.647 50.196 182.713 49.956 182.773 49.752L184.195 44.532H185.707L182.863 54H181.243L180.019 49.104C179.971 48.876 179.911 48.612 179.839 48.312C179.767 48 179.695 47.688 179.623 47.376C179.563 47.052 179.509 46.77 179.461 46.53H179.353C179.329 46.71 179.287 46.938 179.227 47.214C179.179 47.49 179.119 47.796 179.047 48.132C178.975 48.456 178.891 48.78 178.795 49.104L177.571 54H175.951ZM36.464 85.216C35.684 85.216 35.012 85.042 34.448 84.694C33.896 84.346 33.464 83.806 33.152 83.074C32.852 82.33 32.702 81.37 32.702 80.194C32.702 79.078 32.858 78.16 33.17 77.44C33.482 76.72 33.914 76.186 34.466 75.838C35.018 75.49 35.66 75.316 36.392 75.316C36.812 75.316 37.202 75.364 37.562 75.46C37.922 75.556 38.24 75.706 38.516 75.91C38.804 76.114 39.056 76.384 39.272 76.72H39.38V71.986H40.964V85H39.686L39.542 83.65H39.416C39.092 84.178 38.672 84.574 38.156 84.838C37.64 85.09 37.076 85.216 36.464 85.216ZM36.842 83.83C37.442 83.83 37.928 83.698 38.3 83.434C38.672 83.17 38.942 82.786 39.11 82.282C39.29 81.778 39.38 81.154 39.38 80.41V80.122C39.38 79.474 39.314 78.928 39.182 78.484C39.05 78.04 38.87 77.686 38.642 77.422C38.414 77.158 38.15 76.972 37.85 76.864C37.55 76.756 37.232 76.702 36.896 76.702C36.308 76.702 35.828 76.822 35.456 77.062C35.084 77.29 34.808 77.656 34.628 78.16C34.448 78.652 34.358 79.294 34.358 80.086V80.464C34.358 81.28 34.454 81.94 34.646 82.444C34.838 82.936 35.114 83.29 35.474 83.506C35.846 83.722 36.302 83.83 36.842 83.83ZM47.0549 85.216C46.1189 85.216 45.3269 85.042 44.6789 84.694C44.0429 84.334 43.5569 83.788 43.2209 83.056C42.8969 82.324 42.7349 81.394 42.7349 80.266C42.7349 79.126 42.8969 78.196 43.2209 77.476C43.5569 76.744 44.0489 76.204 44.6969 75.856C45.3449 75.496 46.1549 75.316 47.1269 75.316C48.0149 75.316 48.7589 75.49 49.3589 75.838C49.9589 76.174 50.4089 76.684 50.7089 77.368C51.0209 78.04 51.1769 78.886 51.1769 79.906V80.662H44.3729C44.3969 81.418 44.5049 82.042 44.6969 82.534C44.9009 83.014 45.2009 83.368 45.5969 83.596C45.9929 83.812 46.4909 83.92 47.0909 83.92C47.4989 83.92 47.8529 83.872 48.1529 83.776C48.4649 83.668 48.7229 83.518 48.9269 83.326C49.1429 83.134 49.3049 82.906 49.4129 82.642C49.5209 82.378 49.5809 82.09 49.5929 81.778H51.1409C51.1289 82.282 51.0329 82.75 50.8529 83.182C50.6729 83.602 50.4089 83.962 50.0609 84.262C49.7129 84.562 49.2869 84.796 48.7829 84.964C48.2789 85.132 47.7029 85.216 47.0549 85.216ZM44.4089 79.474H49.5389C49.5389 78.946 49.4789 78.502 49.3589 78.142C49.2389 77.782 49.0649 77.488 48.8369 77.26C48.6209 77.032 48.3629 76.87 48.0629 76.774C47.7749 76.666 47.4449 76.612 47.0729 76.612C46.5209 76.612 46.0529 76.714 45.6689 76.918C45.2849 77.122 44.9909 77.434 44.7869 77.854C44.5829 78.274 44.4569 78.814 44.4089 79.474ZM56.2682 85.216C55.6202 85.216 55.0502 85.15 54.5582 85.018C54.0662 84.886 53.6582 84.694 53.3342 84.442C53.0102 84.19 52.7642 83.89 52.5962 83.542C52.4282 83.194 52.3442 82.798 52.3442 82.354C52.3442 82.294 52.3442 82.24 52.3442 82.192C52.3442 82.132 52.3502 82.084 52.3622 82.048H53.9282C53.9162 82.096 53.9102 82.138 53.9102 82.174C53.9102 82.21 53.9102 82.246 53.9102 82.282C53.9222 82.702 54.0302 83.032 54.2342 83.272C54.4502 83.512 54.7442 83.68 55.1162 83.776C55.4882 83.872 55.9022 83.92 56.3582 83.92C56.7542 83.92 57.1202 83.872 57.4562 83.776C57.7922 83.668 58.0562 83.512 58.2482 83.308C58.4522 83.092 58.5542 82.822 58.5542 82.498C58.5542 82.102 58.4222 81.802 58.1582 81.598C57.9062 81.382 57.5702 81.214 57.1502 81.094C56.7302 80.974 56.2922 80.848 55.8362 80.716C55.4522 80.608 55.0682 80.488 54.6842 80.356C54.3002 80.224 53.9522 80.062 53.6402 79.87C53.3402 79.678 53.0942 79.432 52.9022 79.132C52.7222 78.82 52.6322 78.43 52.6322 77.962C52.6322 77.542 52.7162 77.17 52.8842 76.846C53.0642 76.522 53.3162 76.246 53.6402 76.018C53.9642 75.79 54.3542 75.622 54.8102 75.514C55.2782 75.394 55.7942 75.334 56.3582 75.334C56.9582 75.334 57.4802 75.4 57.9242 75.532C58.3802 75.664 58.7582 75.85 59.0582 76.09C59.3582 76.33 59.5802 76.606 59.7242 76.918C59.8682 77.218 59.9402 77.542 59.9402 77.89C59.9402 77.962 59.9402 78.034 59.9402 78.106C59.9402 78.166 59.9342 78.214 59.9222 78.25H58.3742V78.052C58.3742 77.812 58.3082 77.584 58.1762 77.368C58.0562 77.14 57.8402 76.96 57.5282 76.828C57.2282 76.684 56.8082 76.612 56.2682 76.612C55.9202 76.612 55.6202 76.642 55.3682 76.702C55.1162 76.75 54.9062 76.834 54.7382 76.954C54.5702 77.062 54.4442 77.194 54.3602 77.35C54.2762 77.494 54.2342 77.662 54.2342 77.854C54.2342 78.166 54.3362 78.406 54.5402 78.574C54.7442 78.742 55.0142 78.88 55.3502 78.988C55.6982 79.096 56.0702 79.216 56.4662 79.348C56.8862 79.468 57.3122 79.594 57.7442 79.726C58.1882 79.846 58.5902 80.002 58.9502 80.194C59.3222 80.386 59.6162 80.65 59.8322 80.986C60.0602 81.31 60.1742 81.742 60.1742 82.282C60.1742 82.786 60.0782 83.224 59.8862 83.596C59.6942 83.968 59.4182 84.274 59.0582 84.514C58.7102 84.754 58.2962 84.928 57.8162 85.036C57.3482 85.156 56.8322 85.216 56.2682 85.216ZM61.952 73.75V71.986H63.536V73.75H61.952ZM61.952 85V75.532H63.536V85H61.952ZM67.417 88.276C66.961 88.276 66.541 88.18 66.157 87.988C65.773 87.808 65.467 87.544 65.239 87.196C65.011 86.848 64.897 86.434 64.897 85.954C64.897 85.426 65.041 84.988 65.329 84.64C65.629 84.292 65.983 84.034 66.391 83.866C66.091 83.722 65.857 83.524 65.689 83.272C65.521 83.008 65.437 82.72 65.437 82.408C65.437 81.988 65.587 81.634 65.887 81.346C66.199 81.058 66.577 80.866 67.021 80.77C66.613 80.506 66.289 80.17 66.049 79.762C65.821 79.342 65.707 78.88 65.707 78.376C65.707 77.776 65.845 77.248 66.121 76.792C66.409 76.336 66.841 75.976 67.417 75.712C68.005 75.448 68.719 75.316 69.559 75.316C69.943 75.316 70.303 75.346 70.639 75.406C70.975 75.454 71.275 75.538 71.539 75.658C71.959 75.466 72.271 75.22 72.475 74.92C72.691 74.62 72.823 74.314 72.871 74.002H74.437C74.437 74.362 74.353 74.704 74.185 75.028C74.029 75.34 73.813 75.604 73.537 75.82C73.261 76.024 72.925 76.162 72.529 76.234C72.829 76.522 73.051 76.846 73.195 77.206C73.351 77.566 73.429 77.956 73.429 78.376C73.429 78.976 73.285 79.51 72.997 79.978C72.721 80.434 72.301 80.794 71.737 81.058C71.173 81.322 70.465 81.454 69.613 81.454H68.137C67.813 81.454 67.549 81.52 67.345 81.652C67.141 81.772 67.039 81.97 67.039 82.246C67.039 82.486 67.141 82.684 67.345 82.84C67.549 82.984 67.813 83.056 68.137 83.056H71.989C72.685 83.056 73.255 83.29 73.699 83.758C74.143 84.214 74.365 84.802 74.365 85.522C74.365 86.038 74.233 86.5 73.969 86.908C73.717 87.328 73.357 87.658 72.889 87.898C72.433 88.15 71.899 88.276 71.287 88.276H67.417ZM67.867 87.07H71.269C71.545 87.07 71.797 87.01 72.025 86.89C72.253 86.782 72.433 86.626 72.565 86.422C72.697 86.218 72.763 85.996 72.763 85.756C72.763 85.348 72.643 85.024 72.403 84.784C72.163 84.544 71.863 84.424 71.503 84.424H67.867C67.483 84.424 67.159 84.556 66.895 84.82C66.631 85.072 66.499 85.384 66.499 85.756C66.499 86.152 66.631 86.47 66.895 86.71C67.159 86.95 67.483 87.07 67.867 87.07ZM69.577 80.266C70.345 80.266 70.915 80.098 71.287 79.762C71.659 79.426 71.845 78.964 71.845 78.376C71.845 77.8 71.659 77.344 71.287 77.008C70.915 76.672 70.345 76.504 69.577 76.504C68.809 76.504 68.233 76.672 67.849 77.008C67.477 77.344 67.291 77.8 67.291 78.376C67.291 78.748 67.375 79.078 67.543 79.366C67.711 79.654 67.963 79.876 68.299 80.032C68.635 80.188 69.061 80.266 69.577 80.266ZM75.6369 85V75.532H76.9149L77.0589 76.954H77.1849C77.4369 76.57 77.7189 76.258 78.0309 76.018C78.3549 75.778 78.7089 75.604 79.0929 75.496C79.4889 75.376 79.9089 75.316 80.3529 75.316C80.9529 75.316 81.4749 75.418 81.9189 75.622C82.3749 75.826 82.7289 76.156 82.9809 76.612C83.2449 77.068 83.3769 77.686 83.3769 78.466V85H81.7929V78.682C81.7929 78.286 81.7389 77.962 81.6309 77.71C81.5349 77.458 81.3969 77.26 81.2169 77.116C81.0489 76.972 80.8389 76.87 80.5869 76.81C80.3469 76.75 80.0769 76.72 79.7769 76.72C79.3329 76.72 78.9129 76.828 78.5169 77.044C78.1209 77.26 77.8029 77.572 77.5629 77.98C77.3349 78.388 77.2209 78.874 77.2209 79.438V85H75.6369ZM89.1812 85V75.532H90.4592L90.6032 76.954H90.7292C90.9692 76.57 91.2392 76.258 91.5392 76.018C91.8392 75.778 92.1692 75.604 92.5292 75.496C92.8892 75.376 93.2792 75.316 93.6992 75.316C94.3112 75.316 94.8392 75.442 95.2832 75.694C95.7272 75.934 96.0572 76.354 96.2732 76.954H96.3812C96.6092 76.57 96.8732 76.264 97.1732 76.036C97.4732 75.796 97.8092 75.616 98.1812 75.496C98.5532 75.376 98.9492 75.316 99.3692 75.316C99.9452 75.316 100.449 75.418 100.881 75.622C101.313 75.814 101.649 76.138 101.889 76.594C102.141 77.038 102.267 77.638 102.267 78.394V85H100.683V78.646C100.683 78.262 100.635 77.944 100.539 77.692C100.455 77.44 100.329 77.248 100.161 77.116C99.9932 76.972 99.7952 76.87 99.5672 76.81C99.3512 76.75 99.1172 76.72 98.8652 76.72C98.4452 76.72 98.0552 76.828 97.6952 77.044C97.3472 77.26 97.0652 77.572 96.8492 77.98C96.6332 78.388 96.5252 78.874 96.5252 79.438V85H94.9412V78.646C94.9412 78.262 94.8932 77.944 94.7972 77.692C94.7012 77.44 94.5752 77.248 94.4192 77.116C94.2632 76.972 94.0712 76.87 93.8432 76.81C93.6272 76.75 93.3992 76.72 93.1592 76.72C92.7272 76.72 92.3252 76.828 91.9532 77.044C91.5932 77.26 91.3052 77.572 91.0892 77.98C90.8732 78.388 90.7652 78.874 90.7652 79.438V85H89.1812ZM106.864 85.216C106.516 85.216 106.168 85.174 105.82 85.09C105.472 85.006 105.148 84.868 104.848 84.676C104.548 84.484 104.308 84.22 104.128 83.884C103.948 83.536 103.858 83.104 103.858 82.588C103.858 81.94 104.014 81.406 104.326 80.986C104.638 80.566 105.07 80.242 105.622 80.014C106.186 79.774 106.852 79.612 107.62 79.528C108.388 79.432 109.222 79.384 110.122 79.384V78.304C110.122 77.956 110.062 77.656 109.942 77.404C109.822 77.152 109.606 76.96 109.294 76.828C108.994 76.684 108.562 76.612 107.998 76.612C107.458 76.612 107.026 76.684 106.702 76.828C106.39 76.96 106.168 77.134 106.036 77.35C105.916 77.566 105.856 77.806 105.856 78.07V78.34H104.326C104.314 78.28 104.308 78.22 104.308 78.16C104.308 78.1 104.308 78.028 104.308 77.944C104.308 77.368 104.464 76.888 104.776 76.504C105.1 76.108 105.55 75.814 106.126 75.622C106.702 75.418 107.362 75.316 108.106 75.316C108.898 75.316 109.558 75.43 110.086 75.658C110.626 75.886 111.028 76.21 111.292 76.63C111.568 77.05 111.706 77.554 111.706 78.142V83.272C111.706 83.5 111.76 83.662 111.868 83.758C111.976 83.842 112.108 83.884 112.264 83.884H112.966V84.928C112.798 85 112.612 85.06 112.408 85.108C112.204 85.168 111.97 85.198 111.706 85.198C111.394 85.198 111.136 85.132 110.932 85C110.728 84.88 110.572 84.712 110.464 84.496C110.356 84.268 110.284 84.016 110.248 83.74H110.122C109.906 84.04 109.63 84.304 109.294 84.532C108.97 84.748 108.604 84.916 108.196 85.036C107.788 85.156 107.344 85.216 106.864 85.216ZM107.26 83.884C107.644 83.884 108.004 83.824 108.34 83.704C108.688 83.584 108.994 83.416 109.258 83.2C109.522 82.972 109.732 82.702 109.888 82.39C110.044 82.078 110.122 81.736 110.122 81.364V80.572C109.15 80.572 108.322 80.626 107.638 80.734C106.954 80.842 106.426 81.034 106.054 81.31C105.694 81.586 105.514 81.976 105.514 82.48C105.514 82.804 105.586 83.068 105.73 83.272C105.874 83.476 106.078 83.632 106.342 83.74C106.606 83.836 106.912 83.884 107.26 83.884ZM115.718 88.276C115.262 88.276 114.842 88.18 114.458 87.988C114.074 87.808 113.768 87.544 113.54 87.196C113.312 86.848 113.198 86.434 113.198 85.954C113.198 85.426 113.342 84.988 113.63 84.64C113.93 84.292 114.284 84.034 114.692 83.866C114.392 83.722 114.158 83.524 113.99 83.272C113.822 83.008 113.738 82.72 113.738 82.408C113.738 81.988 113.888 81.634 114.188 81.346C114.5 81.058 114.878 80.866 115.322 80.77C114.914 80.506 114.59 80.17 114.35 79.762C114.122 79.342 114.008 78.88 114.008 78.376C114.008 77.776 114.146 77.248 114.422 76.792C114.71 76.336 115.142 75.976 115.718 75.712C116.306 75.448 117.02 75.316 117.86 75.316C118.244 75.316 118.604 75.346 118.94 75.406C119.276 75.454 119.576 75.538 119.84 75.658C120.26 75.466 120.572 75.22 120.776 74.92C120.992 74.62 121.124 74.314 121.172 74.002H122.738C122.738 74.362 122.654 74.704 122.486 75.028C122.33 75.34 122.114 75.604 121.838 75.82C121.562 76.024 121.226 76.162 120.83 76.234C121.13 76.522 121.352 76.846 121.496 77.206C121.652 77.566 121.73 77.956 121.73 78.376C121.73 78.976 121.586 79.51 121.298 79.978C121.022 80.434 120.602 80.794 120.038 81.058C119.474 81.322 118.766 81.454 117.914 81.454H116.438C116.114 81.454 115.85 81.52 115.646 81.652C115.442 81.772 115.34 81.97 115.34 82.246C115.34 82.486 115.442 82.684 115.646 82.84C115.85 82.984 116.114 83.056 116.438 83.056H120.29C120.986 83.056 121.556 83.29 122 83.758C122.444 84.214 122.666 84.802 122.666 85.522C122.666 86.038 122.534 86.5 122.27 86.908C122.018 87.328 121.658 87.658 121.19 87.898C120.734 88.15 120.2 88.276 119.588 88.276H115.718ZM116.168 87.07H119.57C119.846 87.07 120.098 87.01 120.326 86.89C120.554 86.782 120.734 86.626 120.866 86.422C120.998 86.218 121.064 85.996 121.064 85.756C121.064 85.348 120.944 85.024 120.704 84.784C120.464 84.544 120.164 84.424 119.804 84.424H116.168C115.784 84.424 115.46 84.556 115.196 84.82C114.932 85.072 114.8 85.384 114.8 85.756C114.8 86.152 114.932 86.47 115.196 86.71C115.46 86.95 115.784 87.07 116.168 87.07ZM117.878 80.266C118.646 80.266 119.216 80.098 119.588 79.762C119.96 79.426 120.146 78.964 120.146 78.376C120.146 77.8 119.96 77.344 119.588 77.008C119.216 76.672 118.646 76.504 117.878 76.504C117.11 76.504 116.534 76.672 116.15 77.008C115.778 77.344 115.592 77.8 115.592 78.376C115.592 78.748 115.676 79.078 115.844 79.366C116.012 79.654 116.264 79.876 116.6 80.032C116.936 80.188 117.362 80.266 117.878 80.266ZM123.938 73.75V71.986H125.522V73.75H123.938ZM123.938 85V75.532H125.522V85H123.938ZM131.401 85.216C130.489 85.216 129.721 85.042 129.097 84.694C128.485 84.334 128.017 83.788 127.693 83.056C127.381 82.312 127.225 81.382 127.225 80.266C127.225 79.15 127.381 78.226 127.693 77.494C128.017 76.762 128.491 76.216 129.115 75.856C129.751 75.496 130.531 75.316 131.455 75.316C132.103 75.316 132.661 75.4 133.129 75.568C133.609 75.736 134.005 75.982 134.317 76.306C134.629 76.63 134.857 77.02 135.001 77.476C135.157 77.932 135.235 78.454 135.235 79.042H133.633C133.633 78.49 133.555 78.04 133.399 77.692C133.255 77.332 133.021 77.068 132.697 76.9C132.373 76.72 131.947 76.63 131.419 76.63C130.891 76.63 130.435 76.75 130.051 76.99C129.667 77.218 129.373 77.584 129.169 78.088C128.965 78.592 128.863 79.258 128.863 80.086V80.464C128.863 81.244 128.959 81.892 129.151 82.408C129.355 82.924 129.649 83.302 130.033 83.542C130.417 83.782 130.885 83.902 131.437 83.902C131.977 83.902 132.409 83.806 132.733 83.614C133.069 83.422 133.309 83.146 133.453 82.786C133.609 82.426 133.687 81.994 133.687 81.49H135.235C135.235 82.018 135.157 82.51 135.001 82.966C134.857 83.422 134.629 83.818 134.317 84.154C134.005 84.49 133.609 84.754 133.129 84.946C132.649 85.126 132.073 85.216 131.401 85.216ZM140.537 85V71.986H142.121V76.72H142.247C142.487 76.396 142.757 76.132 143.057 75.928C143.357 75.724 143.687 75.574 144.047 75.478C144.419 75.37 144.821 75.316 145.253 75.316C145.853 75.316 146.375 75.418 146.819 75.622C147.275 75.826 147.629 76.156 147.881 76.612C148.145 77.068 148.277 77.686 148.277 78.466V85H146.693V78.682C146.693 78.286 146.639 77.962 146.531 77.71C146.435 77.458 146.297 77.26 146.117 77.116C145.949 76.972 145.739 76.87 145.487 76.81C145.247 76.75 144.977 76.72 144.677 76.72C144.233 76.72 143.813 76.828 143.417 77.044C143.021 77.248 142.703 77.554 142.463 77.962C142.235 78.358 142.121 78.85 142.121 79.438V85H140.537ZM152.875 85.216C152.527 85.216 152.179 85.174 151.831 85.09C151.483 85.006 151.159 84.868 150.859 84.676C150.559 84.484 150.319 84.22 150.139 83.884C149.959 83.536 149.869 83.104 149.869 82.588C149.869 81.94 150.025 81.406 150.337 80.986C150.649 80.566 151.081 80.242 151.633 80.014C152.197 79.774 152.863 79.612 153.631 79.528C154.399 79.432 155.233 79.384 156.133 79.384V78.304C156.133 77.956 156.073 77.656 155.953 77.404C155.833 77.152 155.617 76.96 155.305 76.828C155.005 76.684 154.573 76.612 154.009 76.612C153.469 76.612 153.037 76.684 152.713 76.828C152.401 76.96 152.179 77.134 152.047 77.35C151.927 77.566 151.867 77.806 151.867 78.07V78.34H150.337C150.325 78.28 150.319 78.22 150.319 78.16C150.319 78.1 150.319 78.028 150.319 77.944C150.319 77.368 150.475 76.888 150.787 76.504C151.111 76.108 151.561 75.814 152.137 75.622C152.713 75.418 153.373 75.316 154.117 75.316C154.909 75.316 155.569 75.43 156.097 75.658C156.637 75.886 157.039 76.21 157.303 76.63C157.579 77.05 157.717 77.554 157.717 78.142V83.272C157.717 83.5 157.771 83.662 157.879 83.758C157.987 83.842 158.119 83.884 158.275 83.884H158.977V84.928C158.809 85 158.623 85.06 158.419 85.108C158.215 85.168 157.981 85.198 157.717 85.198C157.405 85.198 157.147 85.132 156.943 85C156.739 84.88 156.583 84.712 156.475 84.496C156.367 84.268 156.295 84.016 156.259 83.74H156.133C155.917 84.04 155.641 84.304 155.305 84.532C154.981 84.748 154.615 84.916 154.207 85.036C153.799 85.156 153.355 85.216 152.875 85.216ZM153.271 83.884C153.655 83.884 154.015 83.824 154.351 83.704C154.699 83.584 155.005 83.416 155.269 83.2C155.533 82.972 155.743 82.702 155.899 82.39C156.055 82.078 156.133 81.736 156.133 81.364V80.572C155.161 80.572 154.333 80.626 153.649 80.734C152.965 80.842 152.437 81.034 152.065 81.31C151.705 81.586 151.525 81.976 151.525 82.48C151.525 82.804 151.597 83.068 151.741 83.272C151.885 83.476 152.089 83.632 152.353 83.74C152.617 83.836 152.923 83.884 153.271 83.884ZM160.128 88.114V75.532H161.388L161.55 76.882H161.676C162 76.354 162.414 75.964 162.918 75.712C163.422 75.448 163.992 75.316 164.628 75.316C165.42 75.316 166.092 75.49 166.644 75.838C167.196 76.186 167.622 76.732 167.922 77.476C168.222 78.208 168.372 79.162 168.372 80.338C168.372 81.442 168.216 82.36 167.904 83.092C167.604 83.812 167.178 84.346 166.626 84.694C166.074 85.042 165.432 85.216 164.7 85.216C164.292 85.216 163.908 85.168 163.548 85.072C163.188 84.976 162.864 84.826 162.576 84.622C162.288 84.406 162.036 84.136 161.82 83.812H161.712V88.114H160.128ZM164.196 83.83C164.784 83.83 165.264 83.716 165.636 83.488C166.008 83.248 166.284 82.882 166.464 82.39C166.644 81.886 166.734 81.244 166.734 80.464V80.086C166.734 79.258 166.638 78.598 166.446 78.106C166.254 77.602 165.972 77.242 165.6 77.026C165.24 76.81 164.79 76.702 164.25 76.702C163.662 76.702 163.176 76.834 162.792 77.098C162.42 77.35 162.144 77.734 161.964 78.25C161.796 78.766 161.712 79.396 161.712 80.14V80.41C161.712 81.07 161.772 81.622 161.892 82.066C162.024 82.498 162.204 82.846 162.432 83.11C162.672 83.374 162.942 83.56 163.242 83.668C163.542 83.776 163.86 83.83 164.196 83.83ZM170.161 88.114V75.532H171.421L171.583 76.882H171.709C172.033 76.354 172.447 75.964 172.951 75.712C173.455 75.448 174.025 75.316 174.661 75.316C175.453 75.316 176.125 75.49 176.677 75.838C177.229 76.186 177.655 76.732 177.955 77.476C178.255 78.208 178.405 79.162 178.405 80.338C178.405 81.442 178.249 82.36 177.937 83.092C177.637 83.812 177.211 84.346 176.659 84.694C176.107 85.042 175.465 85.216 174.733 85.216C174.325 85.216 173.941 85.168 173.581 85.072C173.221 84.976 172.897 84.826 172.609 84.622C172.321 84.406 172.069 84.136 171.853 83.812H171.745V88.114H170.161ZM174.229 83.83C174.817 83.83 175.297 83.716 175.669 83.488C176.041 83.248 176.317 82.882 176.497 82.39C176.677 81.886 176.767 81.244 176.767 80.464V80.086C176.767 79.258 176.671 78.598 176.479 78.106C176.287 77.602 176.005 77.242 175.633 77.026C175.273 76.81 174.823 76.702 174.283 76.702C173.695 76.702 173.209 76.834 172.825 77.098C172.453 77.35 172.177 77.734 171.997 78.25C171.829 78.766 171.745 79.396 171.745 80.14V80.41C171.745 81.07 171.805 81.622 171.925 82.066C172.057 82.498 172.237 82.846 172.465 83.11C172.705 83.374 172.975 83.56 173.275 83.668C173.575 83.776 173.893 83.83 174.229 83.83ZM183.974 85.216C183.038 85.216 182.246 85.042 181.598 84.694C180.962 84.334 180.476 83.788 180.14 83.056C179.816 82.324 179.654 81.394 179.654 80.266C179.654 79.126 179.816 78.196 180.14 77.476C180.476 76.744 180.968 76.204 181.616 75.856C182.264 75.496 183.074 75.316 184.046 75.316C184.934 75.316 185.678 75.49 186.278 75.838C186.878 76.174 187.328 76.684 187.628 77.368C187.94 78.04 188.096 78.886 188.096 79.906V80.662H181.292C181.316 81.418 181.424 82.042 181.616 82.534C181.82 83.014 182.12 83.368 182.516 83.596C182.912 83.812 183.41 83.92 184.01 83.92C184.418 83.92 184.772 83.872 185.072 83.776C185.384 83.668 185.642 83.518 185.846 83.326C186.062 83.134 186.224 82.906 186.332 82.642C186.44 82.378 186.5 82.09 186.512 81.778H188.06C188.048 82.282 187.952 82.75 187.772 83.182C187.592 83.602 187.328 83.962 186.98 84.262C186.632 84.562 186.206 84.796 185.702 84.964C185.198 85.132 184.622 85.216 183.974 85.216ZM181.328 79.474H186.458C186.458 78.946 186.398 78.502 186.278 78.142C186.158 77.782 185.984 77.488 185.756 77.26C185.54 77.032 185.282 76.87 184.982 76.774C184.694 76.666 184.364 76.612 183.992 76.612C183.44 76.612 182.972 76.714 182.588 76.918C182.204 77.122 181.91 77.434 181.706 77.854C181.502 78.274 181.376 78.814 181.328 79.474ZM189.875 85V75.532H191.153L191.297 76.954H191.423C191.675 76.57 191.957 76.258 192.269 76.018C192.593 75.778 192.947 75.604 193.331 75.496C193.727 75.376 194.147 75.316 194.591 75.316C195.191 75.316 195.713 75.418 196.157 75.622C196.613 75.826 196.967 76.156 197.219 76.612C197.483 77.068 197.615 77.686 197.615 78.466V85H196.031V78.682C196.031 78.286 195.977 77.962 195.869 77.71C195.773 77.458 195.635 77.26 195.455 77.116C195.287 76.972 195.077 76.87 194.825 76.81C194.585 76.75 194.315 76.72 194.015 76.72C193.571 76.72 193.151 76.828 192.755 77.044C192.359 77.26 192.041 77.572 191.801 77.98C191.573 78.388 191.459 78.874 191.459 79.438V85H189.875ZM203.15 85.216C202.502 85.216 201.932 85.15 201.44 85.018C200.948 84.886 200.54 84.694 200.216 84.442C199.892 84.19 199.646 83.89 199.478 83.542C199.31 83.194 199.226 82.798 199.226 82.354C199.226 82.294 199.226 82.24 199.226 82.192C199.226 82.132 199.232 82.084 199.244 82.048H200.81C200.798 82.096 200.792 82.138 200.792 82.174C200.792 82.21 200.792 82.246 200.792 82.282C200.804 82.702 200.912 83.032 201.116 83.272C201.332 83.512 201.626 83.68 201.998 83.776C202.37 83.872 202.784 83.92 203.24 83.92C203.636 83.92 204.002 83.872 204.338 83.776C204.674 83.668 204.938 83.512 205.13 83.308C205.334 83.092 205.436 82.822 205.436 82.498C205.436 82.102 205.304 81.802 205.04 81.598C204.788 81.382 204.452 81.214 204.032 81.094C203.612 80.974 203.174 80.848 202.718 80.716C202.334 80.608 201.95 80.488 201.566 80.356C201.182 80.224 200.834 80.062 200.522 79.87C200.222 79.678 199.976 79.432 199.784 79.132C199.604 78.82 199.514 78.43 199.514 77.962C199.514 77.542 199.598 77.17 199.766 76.846C199.946 76.522 200.198 76.246 200.522 76.018C200.846 75.79 201.236 75.622 201.692 75.514C202.16 75.394 202.676 75.334 203.24 75.334C203.84 75.334 204.362 75.4 204.806 75.532C205.262 75.664 205.64 75.85 205.94 76.09C206.24 76.33 206.462 76.606 206.606 76.918C206.75 77.218 206.822 77.542 206.822 77.89C206.822 77.962 206.822 78.034 206.822 78.106C206.822 78.166 206.816 78.214 206.804 78.25H205.256V78.052C205.256 77.812 205.19 77.584 205.058 77.368C204.938 77.14 204.722 76.96 204.41 76.828C204.11 76.684 203.69 76.612 203.15 76.612C202.802 76.612 202.502 76.642 202.25 76.702C201.998 76.75 201.788 76.834 201.62 76.954C201.452 77.062 201.326 77.194 201.242 77.35C201.158 77.494 201.116 77.662 201.116 77.854C201.116 78.166 201.218 78.406 201.422 78.574C201.626 78.742 201.896 78.88 202.232 78.988C202.58 79.096 202.952 79.216 203.348 79.348C203.768 79.468 204.194 79.594 204.626 79.726C205.07 79.846 205.472 80.002 205.832 80.194C206.204 80.386 206.498 80.65 206.714 80.986C206.942 81.31 207.056 81.742 207.056 82.282C207.056 82.786 206.96 83.224 206.768 83.596C206.576 83.968 206.3 84.274 205.94 84.514C205.592 84.754 205.178 84.928 204.698 85.036C204.23 85.156 203.714 85.216 203.15 85.216ZM211.911 81.814V80.806C211.911 80.338 211.983 79.948 212.127 79.636C212.271 79.324 212.457 79.054 212.685 78.826C212.925 78.598 213.171 78.388 213.423 78.196C213.687 77.992 213.933 77.788 214.161 77.584C214.401 77.368 214.593 77.122 214.737 76.846C214.881 76.558 214.953 76.216 214.953 75.82C214.953 75.664 214.929 75.478 214.881 75.262C214.845 75.034 214.749 74.818 214.593 74.614C214.449 74.398 214.227 74.218 213.927 74.074C213.627 73.93 213.231 73.858 212.739 73.858C212.187 73.858 211.749 73.948 211.425 74.128C211.101 74.296 210.855 74.512 210.687 74.776C210.531 75.04 210.423 75.298 210.363 75.55C210.315 75.802 210.291 76.012 210.291 76.18C210.291 76.264 210.291 76.348 210.291 76.432C210.291 76.504 210.297 76.588 210.309 76.684H208.707C208.695 76.636 208.683 76.564 208.671 76.468C208.659 76.36 208.653 76.228 208.653 76.072C208.653 75.796 208.695 75.496 208.779 75.172C208.863 74.848 209.001 74.524 209.193 74.2C209.385 73.876 209.643 73.582 209.967 73.318C210.291 73.054 210.687 72.844 211.155 72.688C211.635 72.52 212.199 72.436 212.847 72.436C213.435 72.436 213.945 72.508 214.377 72.652C214.809 72.784 215.169 72.97 215.457 73.21C215.757 73.438 215.991 73.696 216.159 73.984C216.339 74.26 216.465 74.542 216.537 74.83C216.621 75.118 216.663 75.388 216.663 75.64C216.663 76.216 216.585 76.702 216.429 77.098C216.273 77.494 216.069 77.83 215.817 78.106C215.577 78.37 215.319 78.604 215.043 78.808C214.779 79.012 214.521 79.216 214.269 79.42C214.017 79.612 213.813 79.834 213.657 80.086C213.501 80.326 213.423 80.626 213.423 80.986V81.814H211.911ZM211.785 85V83.11H213.549V85H211.785Z" fill="white"/>
<path d="M41.296 213.336C40.232 213.336 39.2147 213.224 38.244 213C37.2733 212.757 36.4147 212.393 35.668 211.908C34.9213 211.404 34.3333 210.788 33.904 210.06C33.4747 209.313 33.26 208.436 33.26 207.428C33.26 207.316 33.26 207.204 33.26 207.092C33.2787 206.98 33.288 206.896 33.288 206.84H36.956C36.956 206.877 36.9467 206.952 36.928 207.064C36.928 207.157 36.928 207.241 36.928 207.316C36.928 207.932 37.1053 208.464 37.46 208.912C37.8147 209.341 38.328 209.677 39 209.92C39.672 210.144 40.4653 210.256 41.38 210.256C41.996 210.256 42.5373 210.219 43.004 210.144C43.4893 210.069 43.9 209.967 44.236 209.836C44.5907 209.687 44.88 209.519 45.104 209.332C45.328 209.127 45.4867 208.903 45.58 208.66C45.692 208.417 45.748 208.156 45.748 207.876C45.748 207.335 45.58 206.887 45.244 206.532C44.908 206.177 44.4507 205.879 43.872 205.636C43.312 205.393 42.668 205.179 41.94 204.992C41.2307 204.787 40.4933 204.581 39.728 204.376C38.9813 204.171 38.244 203.928 37.516 203.648C36.8067 203.349 36.1627 202.995 35.584 202.584C35.024 202.173 34.576 201.66 34.24 201.044C33.904 200.409 33.736 199.653 33.736 198.776C33.736 197.88 33.9227 197.096 34.296 196.424C34.688 195.752 35.2293 195.201 35.92 194.772C36.6293 194.324 37.4507 193.997 38.384 193.792C39.3173 193.568 40.3347 193.456 41.436 193.456C42.4627 193.456 43.424 193.568 44.32 193.792C45.2347 193.997 46.0373 194.333 46.728 194.8C47.4187 195.248 47.96 195.827 48.352 196.536C48.744 197.227 48.94 198.057 48.94 199.028V199.364H45.328V199.084C45.328 198.543 45.16 198.085 44.824 197.712C44.5067 197.339 44.0493 197.049 43.452 196.844C42.8733 196.639 42.192 196.536 41.408 196.536C40.568 196.536 39.8493 196.62 39.252 196.788C38.6547 196.937 38.1973 197.171 37.88 197.488C37.5627 197.787 37.404 198.16 37.404 198.608C37.404 199.075 37.572 199.467 37.908 199.784C38.244 200.101 38.692 200.372 39.252 200.596C39.8307 200.82 40.4747 201.025 41.184 201.212C41.912 201.399 42.6493 201.604 43.396 201.828C44.1613 202.033 44.8987 202.276 45.608 202.556C46.336 202.836 46.98 203.191 47.54 203.62C48.1187 204.031 48.576 204.544 48.912 205.16C49.248 205.776 49.416 206.513 49.416 207.372C49.416 208.809 49.0613 209.967 48.352 210.844C47.6613 211.721 46.7 212.356 45.468 212.748C44.2547 213.14 42.864 213.336 41.296 213.336ZM58.5438 213.336C56.9758 213.336 55.6691 213.065 54.6238 212.524C53.5784 211.964 52.7944 211.115 52.2718 209.976C51.7491 208.837 51.4878 207.391 51.4878 205.636C51.4878 203.863 51.7491 202.416 52.2718 201.296C52.7944 200.157 53.5784 199.317 54.6238 198.776C55.6691 198.216 56.9758 197.936 58.5438 197.936C59.9624 197.936 61.1478 198.207 62.0998 198.748C63.0704 199.271 63.7984 200.083 64.2838 201.184C64.7691 202.285 65.0118 203.713 65.0118 205.468V206.476H54.9878C55.0251 207.391 55.1651 208.165 55.4078 208.8C55.6504 209.416 56.0238 209.883 56.5278 210.2C57.0504 210.499 57.7318 210.648 58.5718 210.648C59.0011 210.648 59.4024 210.592 59.7758 210.48C60.1491 210.368 60.4758 210.2 60.7558 209.976C61.0358 209.733 61.2504 209.435 61.3998 209.08C61.5678 208.725 61.6518 208.315 61.6518 207.848H65.0118C65.0118 208.781 64.8438 209.593 64.5078 210.284C64.1904 210.975 63.7331 211.544 63.1358 211.992C62.5571 212.44 61.8758 212.776 61.0918 213C60.3078 213.224 59.4584 213.336 58.5438 213.336ZM55.0438 204.068H61.4558C61.4558 203.452 61.3811 202.929 61.2318 202.5C61.1011 202.071 60.9051 201.716 60.6438 201.436C60.4011 201.156 60.1024 200.96 59.7478 200.848C59.3931 200.717 58.9918 200.652 58.5438 200.652C57.8158 200.652 57.1998 200.773 56.6958 201.016C56.2104 201.259 55.8371 201.632 55.5758 202.136C55.3144 202.64 55.1371 203.284 55.0438 204.068ZM73.9591 213.336C72.3911 213.336 71.0844 213.065 70.0391 212.524C68.9938 211.964 68.2098 211.115 67.6871 209.976C67.1644 208.837 66.9031 207.391 66.9031 205.636C66.9031 203.863 67.1644 202.416 67.6871 201.296C68.2098 200.157 68.9938 199.317 70.0391 198.776C71.0844 198.216 72.3911 197.936 73.9591 197.936C75.3778 197.936 76.5631 198.207 77.5151 198.748C78.4858 199.271 79.2138 200.083 79.6991 201.184C80.1844 202.285 80.4271 203.713 80.4271 205.468V206.476H70.4031C70.4404 207.391 70.5804 208.165 70.8231 208.8C71.0658 209.416 71.4391 209.883 71.9431 210.2C72.4658 210.499 73.1471 210.648 73.9871 210.648C74.4164 210.648 74.8178 210.592 75.1911 210.48C75.5644 210.368 75.8911 210.2 76.1711 209.976C76.4511 209.733 76.6658 209.435 76.8151 209.08C76.9831 208.725 77.0671 208.315 77.0671 207.848H80.4271C80.4271 208.781 80.2591 209.593 79.9231 210.284C79.6058 210.975 79.1484 211.544 78.5511 211.992C77.9724 212.44 77.2911 212.776 76.5071 213C75.7231 213.224 74.8738 213.336 73.9591 213.336ZM70.4591 204.068H76.8711C76.8711 203.452 76.7964 202.929 76.6471 202.5C76.5164 202.071 76.3204 201.716 76.0591 201.436C75.8164 201.156 75.5178 200.96 75.1631 200.848C74.8084 200.717 74.4071 200.652 73.9591 200.652C73.2311 200.652 72.6151 200.773 72.1111 201.016C71.6258 201.259 71.2524 201.632 70.9911 202.136C70.7298 202.64 70.5524 203.284 70.4591 204.068ZM88.3719 213V192.756H91.7879V199.952H91.9839C92.3012 199.56 92.6745 199.215 93.1039 198.916C93.5332 198.617 94.0185 198.384 94.5599 198.216C95.1199 198.029 95.7359 197.936 96.4079 197.936C97.3412 197.936 98.1625 198.104 98.8719 198.44C99.5999 198.776 100.169 199.317 100.58 200.064C100.991 200.811 101.196 201.809 101.196 203.06V213H97.7519V203.676C97.7519 203.153 97.6865 202.724 97.5559 202.388C97.4439 202.033 97.2665 201.753 97.0239 201.548C96.7999 201.324 96.5199 201.165 96.1839 201.072C95.8479 200.979 95.4745 200.932 95.0639 200.932C94.4479 200.932 93.8879 201.081 93.3839 201.38C92.8985 201.679 92.5065 202.089 92.2079 202.612C91.9279 203.135 91.7879 203.741 91.7879 204.432V213H88.3719ZM110.995 213.336C109.39 213.336 108.046 213.065 106.963 212.524C105.881 211.964 105.069 211.115 104.527 209.976C103.986 208.837 103.715 207.391 103.715 205.636C103.715 203.863 103.986 202.416 104.527 201.296C105.069 200.157 105.881 199.317 106.963 198.776C108.046 198.216 109.39 197.936 110.995 197.936C112.619 197.936 113.963 198.216 115.027 198.776C116.11 199.317 116.922 200.157 117.463 201.296C118.005 202.416 118.275 203.863 118.275 205.636C118.275 207.391 118.005 208.837 117.463 209.976C116.922 211.115 116.11 211.964 115.027 212.524C113.963 213.065 112.619 213.336 110.995 213.336ZM110.995 210.536C111.891 210.536 112.61 210.368 113.151 210.032C113.711 209.677 114.113 209.155 114.355 208.464C114.617 207.755 114.747 206.877 114.747 205.832V205.44C114.747 204.395 114.617 203.527 114.355 202.836C114.113 202.127 113.711 201.604 113.151 201.268C112.61 200.913 111.891 200.736 110.995 200.736C110.099 200.736 109.371 200.913 108.811 201.268C108.27 201.604 107.869 202.127 107.607 202.836C107.365 203.527 107.243 204.395 107.243 205.44V205.832C107.243 206.877 107.365 207.755 107.607 208.464C107.869 209.155 108.27 209.677 108.811 210.032C109.371 210.368 110.099 210.536 110.995 210.536ZM123.558 213L119.162 198.272H122.69L124.734 206.28C124.846 206.691 124.939 207.101 125.014 207.512C125.088 207.904 125.154 208.24 125.21 208.52C125.266 208.8 125.303 208.968 125.322 209.024H125.49C125.564 208.688 125.639 208.324 125.714 207.932C125.788 207.54 125.854 207.185 125.91 206.868C125.984 206.532 126.031 206.308 126.05 206.196L127.954 198.272H131.622L133.61 206.224C133.684 206.485 133.75 206.793 133.806 207.148C133.88 207.484 133.955 207.82 134.03 208.156C134.104 208.492 134.16 208.781 134.198 209.024H134.366C134.403 208.8 134.45 208.529 134.506 208.212C134.58 207.895 134.655 207.568 134.73 207.232C134.804 206.896 134.87 206.588 134.926 206.308L136.942 198.272H140.218L135.85 213H132.238L130.558 205.972C130.483 205.617 130.39 205.216 130.278 204.768C130.184 204.32 130.091 203.872 129.998 203.424C129.923 202.976 129.858 202.593 129.802 202.276H129.634C129.634 202.407 129.606 202.64 129.55 202.976C129.494 203.312 129.41 203.732 129.298 204.236C129.204 204.74 129.074 205.319 128.906 205.972L127.17 213H123.558ZM36.48 238L32.084 223.272H35.612L37.656 231.28C37.768 231.691 37.8613 232.101 37.936 232.512C38.0107 232.904 38.076 233.24 38.132 233.52C38.188 233.8 38.2253 233.968 38.244 234.024H38.412C38.4867 233.688 38.5613 233.324 38.636 232.932C38.7107 232.54 38.776 232.185 38.832 231.868C38.9067 231.532 38.9533 231.308 38.972 231.196L40.876 223.272H44.544L46.532 231.224C46.6067 231.485 46.672 231.793 46.728 232.148C46.8027 232.484 46.8773 232.82 46.952 233.156C47.0267 233.492 47.0827 233.781 47.12 234.024H47.288C47.3253 233.8 47.372 233.529 47.428 233.212C47.5027 232.895 47.5773 232.568 47.652 232.232C47.7267 231.896 47.792 231.588 47.848 231.308L49.864 223.272H53.14L48.772 238H45.16L43.48 230.972C43.4053 230.617 43.312 230.216 43.2 229.768C43.1067 229.32 43.0133 228.872 42.92 228.424C42.8453 227.976 42.78 227.593 42.724 227.276H42.556C42.556 227.407 42.528 227.64 42.472 227.976C42.416 228.312 42.332 228.732 42.22 229.236C42.1267 229.74 41.996 230.319 41.828 230.972L40.092 238H36.48ZM61.0867 238.336C59.5187 238.336 58.2121 238.065 57.1667 237.524C56.1214 236.964 55.3374 236.115 54.8147 234.976C54.2921 233.837 54.0307 232.391 54.0307 230.636C54.0307 228.863 54.2921 227.416 54.8147 226.296C55.3374 225.157 56.1214 224.317 57.1667 223.776C58.2121 223.216 59.5187 222.936 61.0867 222.936C62.5054 222.936 63.6907 223.207 64.6427 223.748C65.6134 224.271 66.3414 225.083 66.8267 226.184C67.3121 227.285 67.5547 228.713 67.5547 230.468V231.476H57.5307C57.5681 232.391 57.7081 233.165 57.9507 233.8C58.1934 234.416 58.5667 234.883 59.0707 235.2C59.5934 235.499 60.2747 235.648 61.1148 235.648C61.5441 235.648 61.9454 235.592 62.3187 235.48C62.6921 235.368 63.0187 235.2 63.2987 234.976C63.5787 234.733 63.7934 234.435 63.9427 234.08C64.1107 233.725 64.1947 233.315 64.1947 232.848H67.5547C67.5547 233.781 67.3867 234.593 67.0507 235.284C66.7334 235.975 66.2761 236.544 65.6787 236.992C65.1001 237.44 64.4188 237.776 63.6348 238C62.8507 238.224 62.0014 238.336 61.0867 238.336ZM57.5867 229.068H63.9987C63.9987 228.452 63.9241 227.929 63.7747 227.5C63.6441 227.071 63.4481 226.716 63.1868 226.436C62.9441 226.156 62.6454 225.96 62.2907 225.848C61.9361 225.717 61.5347 225.652 61.0867 225.652C60.3587 225.652 59.7427 225.773 59.2387 226.016C58.7534 226.259 58.3801 226.632 58.1187 227.136C57.8574 227.64 57.6801 228.284 57.5867 229.068ZM78.1595 238L73.7635 223.272H77.2915L79.3355 231.28C79.4475 231.691 79.5409 232.101 79.6155 232.512C79.6902 232.904 79.7555 233.24 79.8115 233.52C79.8675 233.8 79.9049 233.968 79.9235 234.024H80.0915C80.1662 233.688 80.2409 233.324 80.3155 232.932C80.3902 232.54 80.4555 232.185 80.5115 231.868C80.5862 231.532 80.6329 231.308 80.6515 231.196L82.5555 223.272H86.2235L88.2115 231.224C88.2862 231.485 88.3515 231.793 88.4075 232.148C88.4822 232.484 88.5569 232.82 88.6315 233.156C88.7062 233.492 88.7622 233.781 88.7995 234.024H88.9675C89.0049 233.8 89.0515 233.529 89.1075 233.212C89.1822 232.895 89.2569 232.568 89.3315 232.232C89.4062 231.896 89.4715 231.588 89.5275 231.308L91.5435 223.272H94.8195L90.4515 238H86.8395L85.1595 230.972C85.0849 230.617 84.9915 230.216 84.8795 229.768C84.7862 229.32 84.6929 228.872 84.5995 228.424C84.5249 227.976 84.4595 227.593 84.4035 227.276H84.2355C84.2355 227.407 84.2075 227.64 84.1515 227.976C84.0955 228.312 84.0115 228.732 83.8995 229.236C83.8062 229.74 83.6755 230.319 83.5075 230.972L81.7715 238H78.1595ZM102.99 238.336C101.385 238.336 100.041 238.065 98.9583 237.524C97.8756 236.964 97.0636 236.115 96.5223 234.976C95.9809 233.837 95.7103 232.391 95.7103 230.636C95.7103 228.863 95.9809 227.416 96.5223 226.296C97.0636 225.157 97.8756 224.317 98.9583 223.776C100.041 223.216 101.385 222.936 102.99 222.936C104.614 222.936 105.958 223.216 107.022 223.776C108.105 224.317 108.917 225.157 109.458 226.296C110 227.416 110.27 228.863 110.27 230.636C110.27 232.391 110 233.837 109.458 234.976C108.917 236.115 108.105 236.964 107.022 237.524C105.958 238.065 104.614 238.336 102.99 238.336ZM102.99 235.536C103.886 235.536 104.605 235.368 105.146 235.032C105.706 234.677 106.108 234.155 106.35 233.464C106.612 232.755 106.742 231.877 106.742 230.832V230.44C106.742 229.395 106.612 228.527 106.35 227.836C106.108 227.127 105.706 226.604 105.146 226.268C104.605 225.913 103.886 225.736 102.99 225.736C102.094 225.736 101.366 225.913 100.806 226.268C100.265 226.604 99.8636 227.127 99.6023 227.836C99.3596 228.527 99.2383 229.395 99.2383 230.44V230.832C99.2383 231.877 99.3596 232.755 99.6023 233.464C99.8636 234.155 100.265 234.677 100.806 235.032C101.366 235.368 102.094 235.536 102.99 235.536ZM112.893 238V223.272H115.749L116.029 225.596H116.225C116.411 225.129 116.635 224.7 116.897 224.308C117.177 223.897 117.531 223.571 117.961 223.328C118.39 223.067 118.913 222.936 119.529 222.936C119.827 222.936 120.098 222.964 120.341 223.02C120.602 223.076 120.798 223.132 120.929 223.188V226.408H119.893C119.314 226.408 118.801 226.492 118.353 226.66C117.905 226.809 117.522 227.052 117.205 227.388C116.906 227.724 116.682 228.144 116.533 228.648C116.383 229.152 116.309 229.74 116.309 230.412V238H112.893ZM122.757 238V217.756H126.173V229.544L131.465 223.272H135.469L130.541 228.984L135.749 238H131.829L128.357 231.476L126.173 233.576V238H122.757Z" fill="white"/>
<circle cx="193" cy="216" r="32" fill="#333333"/>
<path d="M205.233 210.388C205.448 209.588 204.973 208.766 204.173 208.551L191.133 205.057C190.333 204.843 189.51 205.318 189.296 206.118C189.081 206.918 189.556 207.74 190.356 207.955L201.947 211.061L198.842 222.652C198.627 223.452 199.102 224.274 199.902 224.489C200.703 224.703 201.525 224.228 201.739 223.428L205.233 210.388ZM183.75 223.299L204.535 211.299L203.035 208.701L182.25 220.701L183.75 223.299Z" fill="white"/>
</svg>
